<mxfile host="app.diagrams.net" modified="2023-11-08T11:24:19.188Z" agent="Mozilla/5.0 (Windows NT 10.0; Win64; x64) AppleWebKit/537.36 (KHTML, like Gecko) Chrome/118.0.0.0 Safari/537.36 Edg/118.0.2088.76" etag="sTn-j0xiVzp4UKk8UZb-" version="22.0.8" type="device">
  <diagram id="UXIPkQefFEDrWGH3IdC5" name="MiWoEx_neu">
    <mxGraphModel dx="5332" dy="3986" grid="1" gridSize="10" guides="1" tooltips="1" connect="1" arrows="1" fold="1" page="0" pageScale="1" pageWidth="827" pageHeight="1169" math="0" shadow="0">
      <root>
        <mxCell id="97505-SNcamct329gDO7-0" />
        <mxCell id="97505-SNcamct329gDO7-1" parent="97505-SNcamct329gDO7-0" />
        <object label="co:Time" Type="Class" IRI="https://w3id.org/pmd/co/Time" id="4S3OoNcXCZUGaDcpZlmq-0">
          <mxCell style="rounded=0;whiteSpace=wrap;html=1;snapToPoint=1;points=[[0.1,0],[0.2,0],[0.3,0],[0.4,0],[0.5,0],[0.6,0],[0.7,0],[0.8,0],[0.9,0],[0,0.1],[0,0.3],[0,0.5],[0,0.7],[0,0.9],[0.1,1],[0.2,1],[0.3,1],[0.4,1],[0.5,1],[0.6,1],[0.7,1],[0.8,1],[0.9,1],[1,0.1],[1,0.3],[1,0.5],[1,0.7],[1,0.9]];fontSize=11;fillColor=#FFFFFF;" parent="97505-SNcamct329gDO7-1" vertex="1">
            <mxGeometry x="-1289.25" y="-1405" width="140.25" height="30" as="geometry" />
          </mxCell>
        </object>
        <object label="&lt;u style=&quot;font-size: 12px&quot;&gt;ns1:&lt;/u&gt;&lt;span style=&quot;font-size: 12px&quot;&gt;&lt;u&gt;MixingDate_&lt;/u&gt;&lt;/span&gt;" Type="Individual" IRI="Null" id="4S3OoNcXCZUGaDcpZlmq-1">
          <mxCell style="rounded=0;whiteSpace=wrap;html=1;snapToPoint=1;fontSize=11;fillColor=#FFFFFF;" parent="97505-SNcamct329gDO7-1" vertex="1">
            <mxGeometry x="-1289.25" y="-1375" width="140.25" height="30" as="geometry" />
          </mxCell>
        </object>
        <object label="co:value" Type="DatatypeProperty" IRI="https://w3id.org/pmd/co/value" id="4S3OoNcXCZUGaDcpZlmq-2">
          <mxCell style="edgeStyle=orthogonalEdgeStyle;rounded=0;orthogonalLoop=1;jettySize=auto;html=1;fontSize=12;entryX=0;entryY=0.5;entryDx=0;entryDy=0;exitX=1;exitY=0.5;exitDx=0;exitDy=0;fillColor=#FFFFFF;" parent="97505-SNcamct329gDO7-1" source="4S3OoNcXCZUGaDcpZlmq-1" target="4S3OoNcXCZUGaDcpZlmq-3" edge="1">
            <mxGeometry x="-20.5" y="-1194" as="geometry">
              <mxPoint x="-1104.03" y="-1246" as="sourcePoint" />
              <mxPoint x="-601.03" y="-1758.5" as="targetPoint" />
            </mxGeometry>
          </mxCell>
        </object>
        <object label="&quot;$$MixingDate_Value$$&quot;^^xsd:dateTime" Type="DataValue" IRI_DT="http://www.w3.org/2001/XMLSchema#dateTime" id="4S3OoNcXCZUGaDcpZlmq-3">
          <mxCell style="rounded=0;whiteSpace=wrap;html=1;snapToPoint=1;shadow=0;glass=0;sketch=0;strokeColor=default;fontSize=12;fillColor=#FF8C00;" parent="97505-SNcamct329gDO7-1" vertex="1">
            <mxGeometry x="-1049" y="-1370" width="299.5" height="20" as="geometry" />
          </mxCell>
        </object>
        <object label="co:input" Type="ObjectProperty" IRI="https://w3id.org/pmd/co/input" id="4S3OoNcXCZUGaDcpZlmq-6">
          <mxCell style="endArrow=classic;html=1;endSize=8;arcSize=0;edgeStyle=orthogonalEdgeStyle;entryX=0;entryY=0.5;entryDx=0;entryDy=0;fillColor=#FFFFFF;strokeColor=#3D51FF;exitX=1;exitY=0.75;exitDx=0;exitDy=0;" parent="97505-SNcamct329gDO7-1" source="4S3OoNcXCZUGaDcpZlmq-93" target="4S3OoNcXCZUGaDcpZlmq-1" edge="1">
            <mxGeometry width="90" height="26" as="geometry">
              <mxPoint x="-1450" y="-1256" as="sourcePoint" />
              <mxPoint x="-438.5" y="-2709" as="targetPoint" />
              <Array as="points">
                <mxPoint x="-1420" y="-1319" />
                <mxPoint x="-1420" y="-1360" />
              </Array>
              <mxPoint x="14" y="-20" as="offset" />
            </mxGeometry>
          </mxCell>
        </object>
        <object label="ns1:MaterialComposition" Type="Class" IRI="https://w3id.org/cpto/MaterialComposition" id="4S3OoNcXCZUGaDcpZlmq-17">
          <mxCell style="rounded=0;whiteSpace=wrap;html=1;snapToPoint=1;points=[[0.1,0],[0.2,0],[0.3,0],[0.4,0],[0.5,0],[0.6,0],[0.7,0],[0.8,0],[0.9,0],[0,0.1],[0,0.3],[0,0.5],[0,0.7],[0,0.9],[0.1,1],[0.2,1],[0.3,1],[0.4,1],[0.5,1],[0.6,1],[0.7,1],[0.8,1],[0.9,1],[1,0.1],[1,0.3],[1,0.5],[1,0.7],[1,0.9]];fillColor=#97D077;" parent="97505-SNcamct329gDO7-1" vertex="1">
            <mxGeometry x="-1959" y="-1439" width="147.5" height="30" as="geometry" />
          </mxCell>
        </object>
        <object label="&lt;u&gt;ns1:ConcreteMixture_&lt;/u&gt;" Type="Individual" IRI="Null" id="4S3OoNcXCZUGaDcpZlmq-18">
          <mxCell style="rounded=0;whiteSpace=wrap;html=1;snapToPoint=1;fillColor=#97D077;" parent="97505-SNcamct329gDO7-1" vertex="1">
            <mxGeometry x="-1959" y="-1409" width="147.5" height="30" as="geometry" />
          </mxCell>
        </object>
        <object label="co:input" Type="ObjectProperty" IRI="https://w3id.org/pmd/co/input" id="4S3OoNcXCZUGaDcpZlmq-24">
          <mxCell style="endArrow=classic;html=1;endSize=8;arcSize=0;entryX=0;entryY=0.5;entryDx=0;entryDy=0;edgeStyle=orthogonalEdgeStyle;entryPerimeter=0;fillColor=#FFFFFF;strokeColor=#3D51FF;exitX=1;exitY=0.5;exitDx=0;exitDy=0;" parent="97505-SNcamct329gDO7-1" source="4S3OoNcXCZUGaDcpZlmq-18" target="4S3OoNcXCZUGaDcpZlmq-26" edge="1">
            <mxGeometry width="90" height="26" as="geometry">
              <mxPoint x="-1760" y="-1490" as="sourcePoint" />
              <mxPoint x="-1485.5000000000002" y="-952" as="targetPoint" />
              <mxPoint x="25" y="-68" as="offset" />
              <Array as="points">
                <mxPoint x="-1760" y="-1394" />
                <mxPoint x="-1760" y="-1530" />
              </Array>
            </mxGeometry>
          </mxCell>
        </object>
        <object label="co:Dataset" Type="Class" IRI="https://w3id.org/pmd/co/Dataset" id="4S3OoNcXCZUGaDcpZlmq-25">
          <mxCell style="rounded=0;whiteSpace=wrap;html=1;snapToPoint=1;points=[[0.1,0],[0.2,0],[0.3,0],[0.4,0],[0.5,0],[0.6,0],[0.7,0],[0.8,0],[0.9,0],[0,0.1],[0,0.3],[0,0.5],[0,0.7],[0,0.9],[0.1,1],[0.2,1],[0.3,1],[0.4,1],[0.5,1],[0.6,1],[0.7,1],[0.8,1],[0.9,1],[1,0.1],[1,0.3],[1,0.5],[1,0.7],[1,0.9]];fillColor=#FFFFFF;" parent="97505-SNcamct329gDO7-1" vertex="1">
            <mxGeometry x="-1639" y="-1575" width="159" height="30" as="geometry" />
          </mxCell>
        </object>
        <object label="&lt;u&gt;ns1:RawDataFile_&lt;/u&gt;" Type="Individual" IRI="Null" id="4S3OoNcXCZUGaDcpZlmq-26">
          <mxCell style="rounded=0;whiteSpace=wrap;html=1;snapToPoint=1;" parent="97505-SNcamct329gDO7-1" vertex="1">
            <mxGeometry x="-1639" y="-1545" width="159" height="30" as="geometry" />
          </mxCell>
        </object>
        <object label="ns1:MaterialComposition" Type="Class" IRI="https://w3id.org/cpto/MaterialComposition" id="4S3OoNcXCZUGaDcpZlmq-28">
          <mxCell style="rounded=0;whiteSpace=wrap;html=1;snapToPoint=1;points=[[0.1,0],[0.2,0],[0.3,0],[0.4,0],[0.5,0],[0.6,0],[0.7,0],[0.8,0],[0.9,0],[0,0.1],[0,0.3],[0,0.5],[0,0.7],[0,0.9],[0.1,1],[0.2,1],[0.3,1],[0.4,1],[0.5,1],[0.6,1],[0.7,1],[0.8,1],[0.9,1],[1,0.1],[1,0.3],[1,0.5],[1,0.7],[1,0.9]];fillColor=#BAD1FF;" parent="97505-SNcamct329gDO7-1" vertex="1">
            <mxGeometry x="-1639" y="-908" width="159" height="30" as="geometry" />
          </mxCell>
        </object>
        <object label="&lt;u&gt;ns1:MaterialComposition&lt;/u&gt;&lt;u&gt;_&lt;/u&gt;" Type="Individual" IRI="Null" id="4S3OoNcXCZUGaDcpZlmq-29">
          <mxCell style="rounded=0;whiteSpace=wrap;html=1;snapToPoint=1;fillColor=#BAD1FF;" parent="97505-SNcamct329gDO7-1" vertex="1">
            <mxGeometry x="-1639" y="-878" width="159" height="30" as="geometry" />
          </mxCell>
        </object>
        <object label="co:characteristic" Type="ObjectProperty" IRI="https://w3id.org/pmd/co/characteristic" id="4S3OoNcXCZUGaDcpZlmq-78">
          <mxCell style="endArrow=classic;html=1;endSize=8;arcSize=0;edgeStyle=orthogonalEdgeStyle;fillColor=#FFFFFF;strokeColor=#EC3DFF;entryX=0;entryY=0.25;entryDx=0;entryDy=0;exitX=1;exitY=0.5;exitDx=0;exitDy=0;" parent="97505-SNcamct329gDO7-1" source="4S3OoNcXCZUGaDcpZlmq-18" target="4S3OoNcXCZUGaDcpZlmq-29" edge="1">
            <mxGeometry width="90" height="26" as="geometry">
              <mxPoint x="-1920" y="-870" as="sourcePoint" />
              <mxPoint x="-1640" y="-870" as="targetPoint" />
              <mxPoint x="25" y="258" as="offset" />
              <Array as="points">
                <mxPoint x="-1760" y="-1394" />
                <mxPoint x="-1760" y="-870" />
              </Array>
            </mxGeometry>
          </mxCell>
        </object>
        <object label="co:Laboratory" Type="Class" IRI="https://w3id.org/pmd/co/Laboratory" id="4S3OoNcXCZUGaDcpZlmq-85">
          <mxCell style="rounded=0;whiteSpace=wrap;html=1;snapToPoint=1;points=[[0.1,0],[0.2,0],[0.3,0],[0.4,0],[0.5,0],[0.6,0],[0.7,0],[0.8,0],[0.9,0],[0,0.1],[0,0.3],[0,0.5],[0,0.7],[0,0.9],[0.1,1],[0.2,1],[0.3,1],[0.4,1],[0.5,1],[0.6,1],[0.7,1],[0.8,1],[0.9,1],[1,0.1],[1,0.3],[1,0.5],[1,0.7],[1,0.9]];fillColor=#FFFFFF;" parent="97505-SNcamct329gDO7-1" vertex="1">
            <mxGeometry x="-1289.25" y="-1326" width="140.25" height="30" as="geometry" />
          </mxCell>
        </object>
        <object label="&lt;u&gt;ns1:&lt;/u&gt;&lt;u&gt;Laboratory_&lt;/u&gt;" Type="Individual" IRI="Null" id="4S3OoNcXCZUGaDcpZlmq-86">
          <mxCell style="rounded=0;whiteSpace=wrap;html=1;snapToPoint=1;fillColor=#FFFFFF;" parent="97505-SNcamct329gDO7-1" vertex="1">
            <mxGeometry x="-1289.25" y="-1296" width="140.25" height="30" as="geometry" />
          </mxCell>
        </object>
        <object label="co:value" Type="DatatypeProperty" IRI="https://w3id.org/pmd/co/value" id="4S3OoNcXCZUGaDcpZlmq-87">
          <mxCell style="edgeStyle=orthogonalEdgeStyle;rounded=0;orthogonalLoop=1;jettySize=auto;html=1;fontSize=12;entryX=0;entryY=0.5;entryDx=0;entryDy=0;exitX=1;exitY=0.5;exitDx=0;exitDy=0;fillColor=#FFFFFF;" parent="97505-SNcamct329gDO7-1" source="4S3OoNcXCZUGaDcpZlmq-86" target="4S3OoNcXCZUGaDcpZlmq-88" edge="1">
            <mxGeometry x="-20.5" y="-1194" as="geometry">
              <mxPoint x="-1764.5" y="79" as="sourcePoint" />
              <mxPoint x="-4413.97" y="8693.26" as="targetPoint" />
            </mxGeometry>
          </mxCell>
        </object>
        <object label="&quot;$$Lab_Value$$&quot;^^xsd:string" Type="DataValue" IRI_DT="http://www.w3.org/2001/XMLSchema#string" id="4S3OoNcXCZUGaDcpZlmq-88">
          <mxCell style="rounded=0;whiteSpace=wrap;html=1;snapToPoint=1;shadow=0;glass=0;sketch=0;strokeColor=default;fontSize=12;fillColor=#FF8C00;" parent="97505-SNcamct329gDO7-1" vertex="1">
            <mxGeometry x="-1049" y="-1291.5" width="299" height="20" as="geometry" />
          </mxCell>
        </object>
        <object label="co:input" Type="ObjectProperty" IRI="https://w3id.org/pmd/co/input" id="4S3OoNcXCZUGaDcpZlmq-89">
          <mxCell style="endArrow=classic;html=1;endSize=8;arcSize=0;edgeStyle=orthogonalEdgeStyle;entryX=0;entryY=0.5;entryDx=0;entryDy=0;exitX=1;exitY=0.75;exitDx=0;exitDy=0;fillColor=#FFFFFF;strokeColor=#3D51FF;" parent="97505-SNcamct329gDO7-1" source="4S3OoNcXCZUGaDcpZlmq-93" target="4S3OoNcXCZUGaDcpZlmq-86" edge="1">
            <mxGeometry width="90" height="26" as="geometry">
              <mxPoint x="-319.5" y="-2034" as="sourcePoint" />
              <mxPoint x="-879.5" y="-714.0000000000002" as="targetPoint" />
              <mxPoint x="14" y="19" as="offset" />
              <Array as="points">
                <mxPoint x="-1420" y="-1319" />
                <mxPoint x="-1420" y="-1281" />
              </Array>
            </mxGeometry>
          </mxCell>
        </object>
        <object label="co:NodeInfo" Type="Class" IRI="https://w3id.org/pmd/co/NodeInfo" id="4S3OoNcXCZUGaDcpZlmq-92">
          <mxCell style="rounded=0;whiteSpace=wrap;html=1;snapToPoint=1;points=[[0.1,0],[0.2,0],[0.3,0],[0.4,0],[0.5,0],[0.6,0],[0.7,0],[0.8,0],[0.9,0],[0,0.1],[0,0.3],[0,0.5],[0,0.7],[0,0.9],[0.1,1],[0.2,1],[0.3,1],[0.4,1],[0.5,1],[0.6,1],[0.7,1],[0.8,1],[0.9,1],[1,0.1],[1,0.3],[1,0.5],[1,0.7],[1,0.9]];fontSize=11;fillColor=#FFFFFF;" parent="97505-SNcamct329gDO7-1" vertex="1">
            <mxGeometry x="-1639" y="-1372" width="159" height="30" as="geometry" />
          </mxCell>
        </object>
        <object label="&lt;u style=&quot;font-size: 12px&quot;&gt;ns1:&lt;/u&gt;&lt;u&gt;&lt;font style=&quot;font-size: 12px&quot;&gt;ExperimentInfo_&lt;/font&gt;&lt;/u&gt;" Type="Individual" IRI="Null" id="4S3OoNcXCZUGaDcpZlmq-93">
          <mxCell style="rounded=0;whiteSpace=wrap;html=1;snapToPoint=1;fontSize=11;fillColor=#FFFFFF;" parent="97505-SNcamct329gDO7-1" vertex="1">
            <mxGeometry x="-1639" y="-1342" width="159" height="30" as="geometry" />
          </mxCell>
        </object>
        <object label="co:characteristic" Type="ObjectProperty" IRI="https://w3id.org/pmd/co/characteristic" id="4S3OoNcXCZUGaDcpZlmq-94">
          <mxCell style="endArrow=classic;html=1;endSize=8;arcSize=0;edgeStyle=orthogonalEdgeStyle;entryX=0;entryY=0.5;entryDx=0;entryDy=0;fillColor=#FFFFFF;strokeColor=#EC3DFF;exitX=1;exitY=0.5;exitDx=0;exitDy=0;" parent="97505-SNcamct329gDO7-1" source="4S3OoNcXCZUGaDcpZlmq-18" target="4S3OoNcXCZUGaDcpZlmq-93" edge="1">
            <mxGeometry width="90" height="26" as="geometry">
              <mxPoint x="-1800" y="-1380" as="sourcePoint" />
              <mxPoint x="-1566.4999999999998" y="-832" as="targetPoint" />
              <mxPoint x="25" y="34" as="offset" />
              <Array as="points">
                <mxPoint x="-1760" y="-1394" />
                <mxPoint x="-1760" y="-1327" />
              </Array>
            </mxGeometry>
          </mxCell>
        </object>
        <object label="ns1:WaterCementRatio" Type="Class" IRI="https://w3id.org/cpto/WaterCementRatio" id="4S3OoNcXCZUGaDcpZlmq-144">
          <mxCell style="rounded=0;whiteSpace=wrap;html=1;snapToPoint=1;points=[[0.1,0],[0.2,0],[0.3,0],[0.4,0],[0.5,0],[0.6,0],[0.7,0],[0.8,0],[0.9,0],[0,0.1],[0,0.3],[0,0.5],[0,0.7],[0,0.9],[0.1,1],[0.2,1],[0.3,1],[0.4,1],[0.5,1],[0.6,1],[0.7,1],[0.8,1],[0.9,1],[1,0.1],[1,0.3],[1,0.5],[1,0.7],[1,0.9]];fontSize=11;fillColor=#FFFFFF;" parent="97505-SNcamct329gDO7-1" vertex="1">
            <mxGeometry x="-1639.5" y="-1485" width="159.5" height="30" as="geometry" />
          </mxCell>
        </object>
        <object label="&lt;u style=&quot;font-size: 12px&quot;&gt;ns1:&lt;/u&gt;&lt;u&gt;&lt;font style=&quot;font-size: 12px&quot;&gt;WaterCementRatio_&lt;/font&gt;&lt;/u&gt;" Type="Individual" IRI="Null" id="4S3OoNcXCZUGaDcpZlmq-145">
          <mxCell style="rounded=0;whiteSpace=wrap;html=1;snapToPoint=1;fontSize=11;fillColor=#FFFFFF;" parent="97505-SNcamct329gDO7-1" vertex="1">
            <mxGeometry x="-1639.5" y="-1455" width="159.5" height="30" as="geometry" />
          </mxCell>
        </object>
        <object label="co:characteristic" Type="ObjectProperty" IRI="https://w3id.org/pmd/co/characteristic" id="4S3OoNcXCZUGaDcpZlmq-146">
          <mxCell style="endArrow=classic;html=1;endSize=8;arcSize=0;entryX=0;entryY=0.5;entryDx=0;entryDy=0;edgeStyle=orthogonalEdgeStyle;fillColor=#FFFFFF;strokeColor=#EC3DFF;exitX=1;exitY=0.5;exitDx=0;exitDy=0;" parent="97505-SNcamct329gDO7-1" source="4S3OoNcXCZUGaDcpZlmq-18" target="4S3OoNcXCZUGaDcpZlmq-145" edge="1">
            <mxGeometry width="90" height="26" as="geometry">
              <mxPoint x="-1720" y="-1300" as="sourcePoint" />
              <mxPoint x="-1745.5" y="-1224.47" as="targetPoint" />
              <mxPoint x="26" y="-23" as="offset" />
              <Array as="points">
                <mxPoint x="-1760" y="-1394" />
                <mxPoint x="-1760" y="-1440" />
              </Array>
            </mxGeometry>
          </mxCell>
        </object>
        <object label="co:value" Type="DatatypeProperty" IRI="https://w3id.org/pmd/co/value" id="4S3OoNcXCZUGaDcpZlmq-147">
          <mxCell style="edgeStyle=orthogonalEdgeStyle;rounded=0;orthogonalLoop=1;jettySize=auto;html=1;exitX=1;exitY=0.5;exitDx=0;exitDy=0;fontSize=12;entryX=0;entryY=0.5;entryDx=0;entryDy=0;fillColor=#FFFFFF;" parent="97505-SNcamct329gDO7-1" source="4S3OoNcXCZUGaDcpZlmq-145" target="4S3OoNcXCZUGaDcpZlmq-148" edge="1">
            <mxGeometry x="-20.5" y="-1194" as="geometry">
              <mxPoint x="-461.5" y="-1982" as="sourcePoint" />
              <mxPoint x="-1030.5" y="-1754" as="targetPoint" />
            </mxGeometry>
          </mxCell>
        </object>
        <object label="&quot;$$WaterCementRatio_Value$$&quot;^^xsd:decimal" Type="DataValue" IRI_DT="http://www.w3.org/2001/XMLSchema#decimal" id="4S3OoNcXCZUGaDcpZlmq-148">
          <mxCell style="rounded=0;whiteSpace=wrap;html=1;snapToPoint=1;shadow=0;glass=0;sketch=0;strokeColor=default;fontSize=12;fillColor=#FF8C00;" parent="97505-SNcamct329gDO7-1" vertex="1">
            <mxGeometry x="-1290" y="-1450" width="280" height="20" as="geometry" />
          </mxCell>
        </object>
        <object label="co:ProvidedIdentifier" Type="Class" IRI="https://w3id.org/pmd/co/ProvidedIdentifier" id="YiSI-3_hxDZqlvMmnj0z-44">
          <mxCell style="rounded=0;whiteSpace=wrap;html=1;snapToPoint=1;points=[[0.1,0],[0.2,0],[0.3,0],[0.4,0],[0.5,0],[0.6,0],[0.7,0],[0.8,0],[0.9,0],[0,0.1],[0,0.3],[0,0.5],[0,0.7],[0,0.9],[0.1,1],[0.2,1],[0.3,1],[0.4,1],[0.5,1],[0.6,1],[0.7,1],[0.8,1],[0.9,1],[1,0.1],[1,0.3],[1,0.5],[1,0.7],[1,0.9]];fontSize=11;fillColor=#FFFFFF;" parent="97505-SNcamct329gDO7-1" vertex="1">
            <mxGeometry x="-1639" y="-1666" width="160" height="30" as="geometry" />
          </mxCell>
        </object>
        <object label="&lt;u style=&quot;font-size: 12px&quot;&gt;ns1:&lt;/u&gt;&lt;u&gt;&lt;font style=&quot;font-size: 12px&quot;&gt;ID_&lt;/font&gt;&lt;/u&gt;" Type="Individual" IRI="Null" id="YiSI-3_hxDZqlvMmnj0z-45">
          <mxCell style="rounded=0;whiteSpace=wrap;html=1;snapToPoint=1;fontSize=11;" parent="97505-SNcamct329gDO7-1" vertex="1">
            <mxGeometry x="-1639" y="-1636" width="160" height="30" as="geometry" />
          </mxCell>
        </object>
        <object label="ns4:hasIdentifier" Type="ObjectProperty" IRI="http://purl.org/spar/datacite/hasIdentifier" id="YiSI-3_hxDZqlvMmnj0z-46">
          <mxCell style="endArrow=classic;html=1;endSize=8;arcSize=0;edgeStyle=orthogonalEdgeStyle;fillColor=#FFFFFF;strokeColor=#FF0000;entryX=0;entryY=0.5;entryDx=0;entryDy=0;exitX=1;exitY=0.5;exitDx=0;exitDy=0;" parent="97505-SNcamct329gDO7-1" source="4S3OoNcXCZUGaDcpZlmq-18" target="YiSI-3_hxDZqlvMmnj0z-45" edge="1">
            <mxGeometry width="90" height="26" as="geometry">
              <mxPoint x="-1769" y="-1724" as="sourcePoint" />
              <mxPoint x="-1779" y="-1513" as="targetPoint" />
              <mxPoint x="25" y="-113" as="offset" />
              <Array as="points">
                <mxPoint x="-1760" y="-1394" />
                <mxPoint x="-1760" y="-1621" />
              </Array>
            </mxGeometry>
          </mxCell>
        </object>
        <object label="&quot;$$ID_Value$$&quot;^^xsd:string" Type="DataValue" IRI_DT="http://www.w3.org/2001/XMLSchema#string" id="YiSI-3_hxDZqlvMmnj0z-47">
          <mxCell style="rounded=0;whiteSpace=wrap;html=1;snapToPoint=1;shadow=0;glass=0;sketch=0;strokeColor=default;fontSize=12;fillColor=#FF8C00;" parent="97505-SNcamct329gDO7-1" vertex="1">
            <mxGeometry x="-1290.5" y="-1626" width="279.5" height="20" as="geometry" />
          </mxCell>
        </object>
        <object label="co:value" Type="DatatypeProperty" IRI="https://w3id.org/pmd/co/value" id="YiSI-3_hxDZqlvMmnj0z-48">
          <mxCell style="edgeStyle=orthogonalEdgeStyle;rounded=0;orthogonalLoop=1;jettySize=auto;html=1;fontSize=12;exitX=1;exitY=0.75;exitDx=0;exitDy=0;fillColor=#FFFFFF;entryX=0;entryY=0.5;entryDx=0;entryDy=0;" parent="97505-SNcamct329gDO7-1" source="YiSI-3_hxDZqlvMmnj0z-45" target="YiSI-3_hxDZqlvMmnj0z-47" edge="1">
            <mxGeometry as="geometry">
              <mxPoint x="-1451.5000000000002" y="-1616.3400000000001" as="sourcePoint" />
              <mxPoint x="-1361.5" y="-1616" as="targetPoint" />
            </mxGeometry>
          </mxCell>
        </object>
        <object label="&quot;$$RawDataFile_Value$$&quot;^^xsd:anyURI" Type="DataValue" IRI_DT="http://www.w3.org/2001/XMLSchema#anyURI" id="KAcNWF4rV9uF_w8Jalqu-5">
          <mxCell style="rounded=0;whiteSpace=wrap;html=1;snapToPoint=1;shadow=0;glass=0;sketch=0;strokeColor=default;fontSize=12;fillColor=#FF8C00;" parent="97505-SNcamct329gDO7-1" vertex="1">
            <mxGeometry x="-1290" y="-1539" width="280" height="20" as="geometry" />
          </mxCell>
        </object>
        <object label="co:value" Type="DatatypeProperty" IRI="https://w3id.org/pmd/co/value" id="KAcNWF4rV9uF_w8Jalqu-6">
          <mxCell style="edgeStyle=orthogonalEdgeStyle;rounded=0;orthogonalLoop=1;jettySize=auto;html=1;fontSize=12;entryX=0;entryY=0.5;entryDx=0;entryDy=0;exitX=1;exitY=0.5;exitDx=0;exitDy=0;fillColor=#FFFFFF;" parent="97505-SNcamct329gDO7-1" source="4S3OoNcXCZUGaDcpZlmq-26" target="KAcNWF4rV9uF_w8Jalqu-5" edge="1">
            <mxGeometry as="geometry">
              <mxPoint x="-1462.53" y="-1541" as="sourcePoint" />
              <mxPoint x="-781.5899999999999" y="-1336" as="targetPoint" />
              <mxPoint y="1" as="offset" />
            </mxGeometry>
          </mxCell>
        </object>
        <object label="co:ProvidedIdentifier" Type="Class" IRI="https://w3id.org/pmd/co/ProvidedIdentifier" id="DDXoSaGLTSzlOwV82whQ-0">
          <mxCell style="rounded=0;whiteSpace=wrap;html=1;snapToPoint=1;points=[[0.1,0],[0.2,0],[0.3,0],[0.4,0],[0.5,0],[0.6,0],[0.7,0],[0.8,0],[0.9,0],[0,0.1],[0,0.3],[0,0.5],[0,0.7],[0,0.9],[0.1,1],[0.2,1],[0.3,1],[0.4,1],[0.5,1],[0.6,1],[0.7,1],[0.8,1],[0.9,1],[1,0.1],[1,0.3],[1,0.5],[1,0.7],[1,0.9]];fontSize=11;fillColor=#FFFFFF;" parent="97505-SNcamct329gDO7-1" vertex="1">
            <mxGeometry x="-1639" y="-1746" width="160" height="30" as="geometry" />
          </mxCell>
        </object>
        <object label="&lt;u style=&quot;font-size: 12px&quot;&gt;ns1:humanreadable&lt;/u&gt;&lt;u&gt;&lt;font style=&quot;font-size: 12px&quot;&gt;ID_&lt;/font&gt;&lt;/u&gt;" Type="Individual" IRI="Null" id="DDXoSaGLTSzlOwV82whQ-1">
          <mxCell style="rounded=0;whiteSpace=wrap;html=1;snapToPoint=1;fontSize=11;" parent="97505-SNcamct329gDO7-1" vertex="1">
            <mxGeometry x="-1639" y="-1716" width="160" height="30" as="geometry" />
          </mxCell>
        </object>
        <object label="ns4:hasIdentifier" Type="ObjectProperty" IRI="http://purl.org/spar/datacite/hasIdentifier" id="DDXoSaGLTSzlOwV82whQ-2">
          <mxCell style="endArrow=classic;html=1;endSize=8;arcSize=0;edgeStyle=orthogonalEdgeStyle;fillColor=#FFFFFF;strokeColor=#FF0000;entryX=0;entryY=0.5;entryDx=0;entryDy=0;exitX=1;exitY=0.5;exitDx=0;exitDy=0;" parent="97505-SNcamct329gDO7-1" source="4S3OoNcXCZUGaDcpZlmq-18" target="DDXoSaGLTSzlOwV82whQ-1" edge="1">
            <mxGeometry width="90" height="26" as="geometry">
              <mxPoint x="-1790" y="-1580" as="sourcePoint" />
              <mxPoint x="-1649" y="-1804.34" as="targetPoint" />
              <mxPoint x="25" y="-152" as="offset" />
              <Array as="points">
                <mxPoint x="-1760" y="-1394" />
                <mxPoint x="-1760" y="-1701" />
              </Array>
            </mxGeometry>
          </mxCell>
        </object>
        <object label="&quot;$$humanreadableID_Value$$&quot;^^xsd:string" Type="DataValue" IRI_DT="http://www.w3.org/2001/XMLSchema#string" id="DDXoSaGLTSzlOwV82whQ-3">
          <mxCell style="rounded=0;whiteSpace=wrap;html=1;snapToPoint=1;shadow=0;glass=0;sketch=0;strokeColor=default;fontSize=12;fillColor=#FF8C00;" parent="97505-SNcamct329gDO7-1" vertex="1">
            <mxGeometry x="-1290" y="-1711" width="279" height="20" as="geometry" />
          </mxCell>
        </object>
        <object label="co:value" Type="DatatypeProperty" IRI="https://w3id.org/pmd/co/value" id="DDXoSaGLTSzlOwV82whQ-4">
          <mxCell style="edgeStyle=orthogonalEdgeStyle;rounded=0;orthogonalLoop=1;jettySize=auto;html=1;fontSize=12;fillColor=#FFFFFF;entryX=0;entryY=0.5;entryDx=0;entryDy=0;exitX=1;exitY=0.5;exitDx=0;exitDy=0;" parent="97505-SNcamct329gDO7-1" source="DDXoSaGLTSzlOwV82whQ-1" target="DDXoSaGLTSzlOwV82whQ-3" edge="1">
            <mxGeometry as="geometry">
              <mxPoint x="-1459" y="-1696" as="sourcePoint" />
              <mxPoint x="-1314" y="-1696" as="targetPoint" />
              <mxPoint x="-2" as="offset" />
            </mxGeometry>
          </mxCell>
        </object>
        <object label="ns1:https://w3id.org/cpto/&lt;br&gt;co:https://w3id.org/pmd/co/&lt;br&gt;prov:http://www.w3.org/ns/prov#&lt;br&gt;ns3:http://qudt.org/schema/qudt/&lt;br&gt;ns4:http://purl.org/spar/datacite/&lt;br&gt;ns5:https://w3id.org/cpto/kValueAccountingForFlyAsh+&lt;br&gt;ns6:http://www.w3.org/ns/oa#&lt;br&gt;ns7:https://w3id.org/cpto/GGBS/&lt;br&gt;ns8:http://w3id.org/DMI/&lt;br&gt;ns2:http://purl.obolibrary.org/obo/&lt;br&gt;owl:http://www.w3.org/2002/07/owl#&lt;br&gt;terms:http://purl.org/dc/terms/&lt;br&gt;rdfs:http://www.w3.org/2000/01/rdf-schema#&lt;br&gt;skos:http://www.w3.org/2004/02/skos/core#&lt;br&gt;dc:http://purl.org/dc/elements/1.1/&lt;br&gt;swrla:http://swrl.stanford.edu/ontologies/3.3/swrla.owl#" Type="Namespace" id="f1eq6-F0vzFCOijgBrFX-0">
          <mxCell style="shape=note;whiteSpace=wrap;html=1;backgroundOutline=1;darkOpacity=0.05;" parent="97505-SNcamct329gDO7-1" vertex="1">
            <mxGeometry x="-1950" y="-2100" width="640" height="270" as="geometry" />
          </mxCell>
        </object>
        <object label="co:BaseMaterial" Type="Class" IRI="https://w3id.org/pmd/co/BaseMaterial" id="f1eq6-F0vzFCOijgBrFX-1">
          <mxCell style="rounded=0;whiteSpace=wrap;html=1;snapToPoint=1;points=[[0.1,0],[0.2,0],[0.3,0],[0.4,0],[0.5,0],[0.6,0],[0.7,0],[0.8,0],[0.9,0],[0,0.1],[0,0.3],[0,0.5],[0,0.7],[0,0.9],[0.1,1],[0.2,1],[0.3,1],[0.4,1],[0.5,1],[0.6,1],[0.7,1],[0.8,1],[0.9,1],[1,0.1],[1,0.3],[1,0.5],[1,0.7],[1,0.9]];strokeColor=#0F0707;fillColor=#BAD1FF;" parent="97505-SNcamct329gDO7-1" vertex="1">
            <mxGeometry x="-1289" y="-1140" width="130" height="30" as="geometry" />
          </mxCell>
        </object>
        <object label="&lt;u&gt;ns1:Cement1_&lt;/u&gt;" Type="Individual" IRI="Null" id="f1eq6-F0vzFCOijgBrFX-2">
          <mxCell style="rounded=0;whiteSpace=wrap;html=1;snapToPoint=1;strokeColor=#0F0707;fillColor=#BAD1FF;" parent="97505-SNcamct329gDO7-1" vertex="1">
            <mxGeometry x="-1289" y="-1110" width="130" height="30" as="geometry" />
          </mxCell>
        </object>
        <object label="co:composedOf" Type="ObjectProperty" IRI="https://w3id.org/pmd/co/composedOf" id="f1eq6-F0vzFCOijgBrFX-3">
          <mxCell style="endArrow=classic;html=1;exitX=1;exitY=0.5;exitDx=0;exitDy=0;entryX=0;entryY=0.5;entryDx=0;entryDy=0;endSize=8;arcSize=0;edgeStyle=orthogonalEdgeStyle;strokeColor=#499100;" parent="97505-SNcamct329gDO7-1" source="4S3OoNcXCZUGaDcpZlmq-29" target="f1eq6-F0vzFCOijgBrFX-2" edge="1">
            <mxGeometry width="90" height="26" as="geometry">
              <mxPoint x="-1377.4953989545036" y="-950.0003817210477" as="sourcePoint" />
              <mxPoint x="-1253.4953989545036" y="-950.0003817210477" as="targetPoint" />
              <mxPoint x="26" y="-116" as="offset" />
              <Array as="points">
                <mxPoint x="-1420" y="-863" />
                <mxPoint x="-1420" y="-1095" />
              </Array>
            </mxGeometry>
          </mxCell>
        </object>
        <object label="co:composedOf" Type="ObjectProperty" IRI="https://w3id.org/pmd/co/composedOf" id="f1eq6-F0vzFCOijgBrFX-16">
          <mxCell style="endArrow=classic;html=1;exitX=1;exitY=0.5;exitDx=0;exitDy=0;entryX=0;entryY=0.5;entryDx=0;entryDy=0;endSize=8;arcSize=0;edgeStyle=orthogonalEdgeStyle;strokeColor=#499100;" parent="97505-SNcamct329gDO7-1" source="f1eq6-F0vzFCOijgBrFX-2" target="f1eq6-F0vzFCOijgBrFX-18" edge="1">
            <mxGeometry width="90" height="26" as="geometry">
              <mxPoint x="-1109.004435029871" y="-1118.0022332404642" as="sourcePoint" />
              <mxPoint x="-985.004435029871" y="-1118.0022332404642" as="targetPoint" />
              <Array as="points">
                <mxPoint x="-1079" y="-1095" />
                <mxPoint x="-1079" y="-1195" />
              </Array>
              <mxPoint x="30" y="-50" as="offset" />
            </mxGeometry>
          </mxCell>
        </object>
        <object label="ns1:Cement" Type="Class" IRI="https://w3id.org/cpto/Cement" id="f1eq6-F0vzFCOijgBrFX-17">
          <mxCell style="rounded=0;whiteSpace=wrap;html=1;snapToPoint=1;points=[[0.1,0],[0.2,0],[0.3,0],[0.4,0],[0.5,0],[0.6,0],[0.7,0],[0.8,0],[0.9,0],[0,0.1],[0,0.3],[0,0.5],[0,0.7],[0,0.9],[0.1,1],[0.2,1],[0.3,1],[0.4,1],[0.5,1],[0.6,1],[0.7,1],[0.8,1],[0.9,1],[1,0.1],[1,0.3],[1,0.5],[1,0.7],[1,0.9]];strokeColor=#0F0707;fillColor=#FFFFFF;" parent="97505-SNcamct329gDO7-1" vertex="1">
            <mxGeometry x="-969" y="-1240.06" width="159" height="30" as="geometry" />
          </mxCell>
        </object>
        <object label="&lt;u&gt;ns1:Cement1_Type_&lt;/u&gt;" Type="Individual" IRI="Null" id="f1eq6-F0vzFCOijgBrFX-18">
          <mxCell style="rounded=0;whiteSpace=wrap;html=1;snapToPoint=1;strokeColor=#0F0707;fillColor=#F8F8F8;" parent="97505-SNcamct329gDO7-1" vertex="1">
            <mxGeometry x="-969" y="-1210.06" width="159" height="30" as="geometry" />
          </mxCell>
        </object>
        <object label="co:characteristic" Type="ObjectProperty" IRI="https://w3id.org/pmd/co/characteristic" id="f1eq6-F0vzFCOijgBrFX-19">
          <mxCell style="endArrow=classic;html=1;exitX=1;exitY=0.5;exitDx=0;exitDy=0;endSize=8;arcSize=0;entryX=0;entryY=0.5;entryDx=0;entryDy=0;strokeColor=#EC3DFF;" parent="97505-SNcamct329gDO7-1" source="f1eq6-F0vzFCOijgBrFX-2" target="f1eq6-F0vzFCOijgBrFX-21" edge="1">
            <mxGeometry width="90" height="26" as="geometry">
              <mxPoint x="-1098.9977024931068" y="-1070.0039186724493" as="sourcePoint" />
              <mxPoint x="-1019" y="-1080" as="targetPoint" />
              <mxPoint x="30" as="offset" />
            </mxGeometry>
          </mxCell>
        </object>
        <object label="ns1:Content" Type="Class" IRI="https://w3id.org/cpto/Content" id="f1eq6-F0vzFCOijgBrFX-20">
          <mxCell style="rounded=0;whiteSpace=wrap;html=1;snapToPoint=1;points=[[0.1,0],[0.2,0],[0.3,0],[0.4,0],[0.5,0],[0.6,0],[0.7,0],[0.8,0],[0.9,0],[0,0.1],[0,0.3],[0,0.5],[0,0.7],[0,0.9],[0.1,1],[0.2,1],[0.3,1],[0.4,1],[0.5,1],[0.6,1],[0.7,1],[0.8,1],[0.9,1],[1,0.1],[1,0.3],[1,0.5],[1,0.7],[1,0.9]];strokeColor=#0F0707;fillColor=#FFFFFF;" parent="97505-SNcamct329gDO7-1" vertex="1">
            <mxGeometry x="-969" y="-1140" width="159" height="30" as="geometry" />
          </mxCell>
        </object>
        <object label="&lt;u&gt;ns1:Cement1_Content_&lt;/u&gt;" Type="Individual" IRI="Null" id="f1eq6-F0vzFCOijgBrFX-21">
          <mxCell style="rounded=0;whiteSpace=wrap;html=1;snapToPoint=1;strokeColor=#0F0707;fillColor=#F8F8F8;" parent="97505-SNcamct329gDO7-1" vertex="1">
            <mxGeometry x="-969" y="-1110" width="159" height="30" as="geometry" />
          </mxCell>
        </object>
        <object label="co:characteristic" Type="ObjectProperty" IRI="https://w3id.org/pmd/co/characteristic" id="f1eq6-F0vzFCOijgBrFX-22">
          <mxCell style="endArrow=classic;html=1;exitX=1;exitY=0.5;exitDx=0;exitDy=0;endSize=8;arcSize=0;entryX=0;entryY=0.5;entryDx=0;entryDy=0;edgeStyle=orthogonalEdgeStyle;strokeColor=#EC3DFF;" parent="97505-SNcamct329gDO7-1" source="f1eq6-F0vzFCOijgBrFX-2" target="f1eq6-F0vzFCOijgBrFX-24" edge="1">
            <mxGeometry width="90" height="26" as="geometry">
              <mxPoint x="-1194.25095502068" y="-1053.9981155934056" as="sourcePoint" />
              <mxPoint x="-1038" y="-1000" as="targetPoint" />
              <mxPoint x="30" y="58" as="offset" />
              <Array as="points">
                <mxPoint x="-1079" y="-1095" />
                <mxPoint x="-1079" y="-978" />
              </Array>
            </mxGeometry>
          </mxCell>
        </object>
        <object label="ns1:RelativeDensity" Type="Class" IRI="https://w3id.org/cpto/RelativeDensity" id="f1eq6-F0vzFCOijgBrFX-23">
          <mxCell style="rounded=0;whiteSpace=wrap;html=1;snapToPoint=1;points=[[0.1,0],[0.2,0],[0.3,0],[0.4,0],[0.5,0],[0.6,0],[0.7,0],[0.8,0],[0.9,0],[0,0.1],[0,0.3],[0,0.5],[0,0.7],[0,0.9],[0.1,1],[0.2,1],[0.3,1],[0.4,1],[0.5,1],[0.6,1],[0.7,1],[0.8,1],[0.9,1],[1,0.1],[1,0.3],[1,0.5],[1,0.7],[1,0.9]];strokeColor=#0F0707;fillColor=#FFFFFF;" parent="97505-SNcamct329gDO7-1" vertex="1">
            <mxGeometry x="-969" y="-1023.06" width="159" height="30" as="geometry" />
          </mxCell>
        </object>
        <object label="&lt;u&gt;ns1:Cement1_Density_&lt;/u&gt;" Type="Individual" IRI="Null" id="f1eq6-F0vzFCOijgBrFX-24">
          <mxCell style="rounded=0;whiteSpace=wrap;html=1;snapToPoint=1;strokeColor=#0F0707;fillColor=#F8F8F8;" parent="97505-SNcamct329gDO7-1" vertex="1">
            <mxGeometry x="-969" y="-993.06" width="159" height="30" as="geometry" />
          </mxCell>
        </object>
        <object label="co:unit" Type="ObjectProperty" IRI="https://w3id.org/pmd/co/unit" id="4debdBr3dE2mrL2Lvimg-1">
          <mxCell style="endArrow=classic;html=1;exitX=1;exitY=0.25;exitDx=0;exitDy=0;entryX=0;entryY=0.25;entryDx=0;entryDy=0;endSize=8;arcSize=0;edgeStyle=orthogonalEdgeStyle;strokeColor=#FF6666;" parent="97505-SNcamct329gDO7-1" source="f1eq6-F0vzFCOijgBrFX-21" target="4debdBr3dE2mrL2Lvimg-5" edge="1">
            <mxGeometry width="90" height="26" as="geometry">
              <mxPoint x="-848.9952404785156" y="-1069.9993664550782" as="sourcePoint" />
              <mxPoint x="-772.9952404785156" y="-1069.9993664550782" as="targetPoint" />
              <Array as="points">
                <mxPoint x="-750" y="-1102" />
                <mxPoint x="-750" y="-1132" />
              </Array>
              <mxPoint x="10" y="-2" as="offset" />
            </mxGeometry>
          </mxCell>
        </object>
        <object label="&quot;$$Cement1_Content_Value$$&quot;^^xsd:float" Type="DataValue" IRI_DT="http://www.w3.org/2001/XMLSchema#float" id="4debdBr3dE2mrL2Lvimg-2">
          <mxCell style="rounded=0;whiteSpace=wrap;html=1;fillColor=#FF8C00;" parent="97505-SNcamct329gDO7-1" vertex="1">
            <mxGeometry x="-709" y="-1101" width="259" height="26" as="geometry" />
          </mxCell>
        </object>
        <object label="&quot;$$Cement1_Density_Value$$&quot;^^xsd:float" Type="DataValue" IRI_DT="http://www.w3.org/2001/XMLSchema#float" id="4debdBr3dE2mrL2Lvimg-3">
          <mxCell style="rounded=0;whiteSpace=wrap;html=1;fillColor=#FF8C00;" parent="97505-SNcamct329gDO7-1" vertex="1">
            <mxGeometry x="-709" y="-990.06" width="259" height="26" as="geometry" />
          </mxCell>
        </object>
        <object label="ns8:Unit" Type="Class" IRI="http://qudt.org/schema/qudt/Unit" id="4debdBr3dE2mrL2Lvimg-4">
          <mxCell style="rounded=0;whiteSpace=wrap;html=1;snapToPoint=1;points=[[0.1,0],[0.2,0],[0.3,0],[0.4,0],[0.5,0],[0.6,0],[0.7,0],[0.8,0],[0.9,0],[0,0.1],[0,0.3],[0,0.5],[0,0.7],[0,0.9],[0.1,1],[0.2,1],[0.3,1],[0.4,1],[0.5,1],[0.6,1],[0.7,1],[0.8,1],[0.9,1],[1,0.1],[1,0.3],[1,0.5],[1,0.7],[1,0.9]];fillColor=#FFFFFF;" parent="97505-SNcamct329gDO7-1" vertex="1">
            <mxGeometry x="-710" y="-1170" width="220" height="30" as="geometry" />
          </mxCell>
        </object>
        <object label="&lt;u&gt;ns1:##Cement1_Content_Unit##&lt;/u&gt;" Type="Individual" IRI="Null" id="4debdBr3dE2mrL2Lvimg-5">
          <mxCell style="rounded=0;whiteSpace=wrap;html=1;snapToPoint=1;" parent="97505-SNcamct329gDO7-1" vertex="1">
            <mxGeometry x="-710" y="-1140" width="220" height="30" as="geometry" />
          </mxCell>
        </object>
        <object label="ns8:Unit" Type="Class" IRI="http://qudt.org/schema/qudt/Unit" id="4debdBr3dE2mrL2Lvimg-6">
          <mxCell style="rounded=0;whiteSpace=wrap;html=1;snapToPoint=1;points=[[0.1,0],[0.2,0],[0.3,0],[0.4,0],[0.5,0],[0.6,0],[0.7,0],[0.8,0],[0.9,0],[0,0.1],[0,0.3],[0,0.5],[0,0.7],[0,0.9],[0.1,1],[0.2,1],[0.3,1],[0.4,1],[0.5,1],[0.6,1],[0.7,1],[0.8,1],[0.9,1],[1,0.1],[1,0.3],[1,0.5],[1,0.7],[1,0.9]];fillColor=#FFFFFF;" parent="97505-SNcamct329gDO7-1" vertex="1">
            <mxGeometry x="-710" y="-1059" width="220" height="30" as="geometry" />
          </mxCell>
        </object>
        <object label="&lt;u&gt;ns1:##Cement1_Density_Unit##&lt;/u&gt;" Type="Individual" IRI="Null" id="4debdBr3dE2mrL2Lvimg-7">
          <mxCell style="rounded=0;whiteSpace=wrap;html=1;snapToPoint=1;" parent="97505-SNcamct329gDO7-1" vertex="1">
            <mxGeometry x="-710" y="-1029" width="220" height="30" as="geometry" />
          </mxCell>
        </object>
        <object label="co:unit" Type="ObjectProperty" IRI="https://w3id.org/pmd/co/unit" id="4debdBr3dE2mrL2Lvimg-8">
          <mxCell style="endArrow=classic;html=1;exitX=1;exitY=0.25;exitDx=0;exitDy=0;entryX=0;entryY=0.5;entryDx=0;entryDy=0;endSize=8;arcSize=0;edgeStyle=orthogonalEdgeStyle;strokeColor=#FF6666;" parent="97505-SNcamct329gDO7-1" source="f1eq6-F0vzFCOijgBrFX-24" target="4debdBr3dE2mrL2Lvimg-7" edge="1">
            <mxGeometry width="90" height="26" as="geometry">
              <mxPoint x="-818.9800000000005" y="-904" as="sourcePoint" />
              <mxPoint x="-436.4800000000005" y="-919" as="targetPoint" />
              <Array as="points">
                <mxPoint x="-770" y="-986" />
                <mxPoint x="-770" y="-1014" />
              </Array>
              <mxPoint x="-10" y="-4" as="offset" />
            </mxGeometry>
          </mxCell>
        </object>
        <object label="co:value" Type="DatatypeProperty" IRI="https://w3id.org/pmd/co/value" id="4debdBr3dE2mrL2Lvimg-9">
          <mxCell style="edgeStyle=orthogonalEdgeStyle;rounded=0;orthogonalLoop=1;jettySize=auto;html=1;fontSize=12;entryX=0;entryY=0.75;entryDx=0;entryDy=0;exitX=1;exitY=0.75;exitDx=0;exitDy=0;" parent="97505-SNcamct329gDO7-1" source="f1eq6-F0vzFCOijgBrFX-24" target="4debdBr3dE2mrL2Lvimg-3" edge="1">
            <mxGeometry x="-294.7920637459588" y="-898.710655475485" as="geometry">
              <mxPoint x="-800" y="-974" as="sourcePoint" />
              <mxPoint x="-99.79206374595879" y="-1134.710655475485" as="targetPoint" />
            </mxGeometry>
          </mxCell>
        </object>
        <object label="co:value" Type="DatatypeProperty" IRI="https://w3id.org/pmd/co/value" id="4debdBr3dE2mrL2Lvimg-10">
          <mxCell style="edgeStyle=orthogonalEdgeStyle;rounded=0;orthogonalLoop=1;jettySize=auto;html=1;exitX=1;exitY=0.75;exitDx=0;exitDy=0;fontSize=12;entryX=0;entryY=0.5;entryDx=0;entryDy=0;" parent="97505-SNcamct329gDO7-1" source="f1eq6-F0vzFCOijgBrFX-21" target="4debdBr3dE2mrL2Lvimg-2" edge="1">
            <mxGeometry x="-294.7920637459588" y="-898.710655475485" as="geometry">
              <mxPoint x="-263.7920637459588" y="-1158.710655475485" as="sourcePoint" />
              <mxPoint x="-179.79206374595879" y="-1158.710655475485" as="targetPoint" />
            </mxGeometry>
          </mxCell>
        </object>
        <object label="co:BaseMaterial" Type="Class" IRI="https://w3id.org/pmd/co/BaseMaterial" id="4debdBr3dE2mrL2Lvimg-33">
          <mxCell style="rounded=0;whiteSpace=wrap;html=1;snapToPoint=1;points=[[0.1,0],[0.2,0],[0.3,0],[0.4,0],[0.5,0],[0.6,0],[0.7,0],[0.8,0],[0.9,0],[0,0.1],[0,0.3],[0,0.5],[0,0.7],[0,0.9],[0.1,1],[0.2,1],[0.3,1],[0.4,1],[0.5,1],[0.6,1],[0.7,1],[0.8,1],[0.9,1],[1,0.1],[1,0.3],[1,0.5],[1,0.7],[1,0.9]];strokeColor=#0F0707;fillColor=#BAD1FF;" parent="97505-SNcamct329gDO7-1" vertex="1">
            <mxGeometry x="-1289.5" y="-828.94" width="130.5" height="30" as="geometry" />
          </mxCell>
        </object>
        <object label="&lt;u&gt;ns1:Water_&lt;/u&gt;" Type="Individual" IRI="Null" id="4debdBr3dE2mrL2Lvimg-34">
          <mxCell style="rounded=0;whiteSpace=wrap;html=1;snapToPoint=1;strokeColor=#0F0707;fillColor=#BAD1FF;" parent="97505-SNcamct329gDO7-1" vertex="1">
            <mxGeometry x="-1289.5" y="-798.94" width="130.5" height="30" as="geometry" />
          </mxCell>
        </object>
        <object label="co:composedOf" Type="ObjectProperty" IRI="https://w3id.org/pmd/co/composedOf" id="4debdBr3dE2mrL2Lvimg-35">
          <mxCell style="endArrow=classic;html=1;exitX=1;exitY=0.5;exitDx=0;exitDy=0;entryX=0;entryY=0.5;entryDx=0;entryDy=0;endSize=8;arcSize=0;edgeStyle=orthogonalEdgeStyle;strokeColor=#499100;" parent="97505-SNcamct329gDO7-1" source="4S3OoNcXCZUGaDcpZlmq-29" target="4debdBr3dE2mrL2Lvimg-34" edge="1">
            <mxGeometry width="90" height="26" as="geometry">
              <mxPoint x="-1480" y="-165.9400000000005" as="sourcePoint" />
              <mxPoint x="-1253.4953989545036" y="-252.94038172104774" as="targetPoint" />
              <mxPoint x="26" y="40" as="offset" />
              <Array as="points">
                <mxPoint x="-1420" y="-863" />
                <mxPoint x="-1420" y="-784" />
              </Array>
            </mxGeometry>
          </mxCell>
        </object>
        <object label="co:composedOf" Type="ObjectProperty" IRI="https://w3id.org/pmd/co/composedOf" id="4debdBr3dE2mrL2Lvimg-36">
          <mxCell style="endArrow=classic;html=1;exitX=1;exitY=0.5;exitDx=0;exitDy=0;entryX=0;entryY=0.5;entryDx=0;entryDy=0;endSize=8;arcSize=0;edgeStyle=orthogonalEdgeStyle;strokeColor=#499100;" parent="97505-SNcamct329gDO7-1" source="4debdBr3dE2mrL2Lvimg-34" target="4debdBr3dE2mrL2Lvimg-38" edge="1">
            <mxGeometry width="90" height="26" as="geometry">
              <mxPoint x="-1119.004435029871" y="-806.9422332404641" as="sourcePoint" />
              <mxPoint x="-995.004435029871" y="-806.9422332404641" as="targetPoint" />
              <Array as="points">
                <mxPoint x="-1089" y="-784" />
                <mxPoint x="-1089" y="-874" />
              </Array>
              <mxPoint x="35" y="-45" as="offset" />
            </mxGeometry>
          </mxCell>
        </object>
        <object label="ns1:Water" Type="Class" IRI="https://w3id.org/cpto/Water" id="4debdBr3dE2mrL2Lvimg-37">
          <mxCell style="rounded=0;whiteSpace=wrap;html=1;snapToPoint=1;points=[[0.1,0],[0.2,0],[0.3,0],[0.4,0],[0.5,0],[0.6,0],[0.7,0],[0.8,0],[0.9,0],[0,0.1],[0,0.3],[0,0.5],[0,0.7],[0,0.9],[0.1,1],[0.2,1],[0.3,1],[0.4,1],[0.5,1],[0.6,1],[0.7,1],[0.8,1],[0.9,1],[1,0.1],[1,0.3],[1,0.5],[1,0.7],[1,0.9]];strokeColor=#0F0707;fillColor=#FFFFFF;" parent="97505-SNcamct329gDO7-1" vertex="1">
            <mxGeometry x="-969" y="-919" width="159" height="30" as="geometry" />
          </mxCell>
        </object>
        <object label="&lt;u&gt;ns1:Water_Type_&lt;/u&gt;" Type="Individual" IRI="Null" id="4debdBr3dE2mrL2Lvimg-38">
          <mxCell style="rounded=0;whiteSpace=wrap;html=1;snapToPoint=1;strokeColor=#0F0707;fillColor=#F8F8F8;" parent="97505-SNcamct329gDO7-1" vertex="1">
            <mxGeometry x="-969" y="-889" width="159" height="30" as="geometry" />
          </mxCell>
        </object>
        <object label="co:characteristic" Type="ObjectProperty" IRI="https://w3id.org/pmd/co/characteristic" id="4debdBr3dE2mrL2Lvimg-39">
          <mxCell style="endArrow=classic;html=1;exitX=1;exitY=0.5;exitDx=0;exitDy=0;endSize=8;arcSize=0;entryX=0;entryY=0.5;entryDx=0;entryDy=0;strokeColor=#EC3DFF;" parent="97505-SNcamct329gDO7-1" source="4debdBr3dE2mrL2Lvimg-34" target="4debdBr3dE2mrL2Lvimg-41" edge="1">
            <mxGeometry x="-10" y="389.05999999999995" width="90" height="26" as="geometry">
              <mxPoint x="-1108.9977024931068" y="-758.9439186724493" as="sourcePoint" />
              <mxPoint x="-1029" y="-768.94" as="targetPoint" />
              <mxPoint x="40" as="offset" />
            </mxGeometry>
          </mxCell>
        </object>
        <object label="ns1:Content" Type="Class" IRI="https://w3id.org/cpto/Content" id="4debdBr3dE2mrL2Lvimg-40">
          <mxCell style="rounded=0;whiteSpace=wrap;html=1;snapToPoint=1;points=[[0.1,0],[0.2,0],[0.3,0],[0.4,0],[0.5,0],[0.6,0],[0.7,0],[0.8,0],[0.9,0],[0,0.1],[0,0.3],[0,0.5],[0,0.7],[0,0.9],[0.1,1],[0.2,1],[0.3,1],[0.4,1],[0.5,1],[0.6,1],[0.7,1],[0.8,1],[0.9,1],[1,0.1],[1,0.3],[1,0.5],[1,0.7],[1,0.9]];strokeColor=#0F0707;fillColor=#FFFFFF;" parent="97505-SNcamct329gDO7-1" vertex="1">
            <mxGeometry x="-969" y="-828" width="159" height="30" as="geometry" />
          </mxCell>
        </object>
        <object label="&lt;u&gt;ns1:Water_Content_&lt;/u&gt;" Type="Individual" IRI="Null" id="4debdBr3dE2mrL2Lvimg-41">
          <mxCell style="rounded=0;whiteSpace=wrap;html=1;snapToPoint=1;strokeColor=#0F0707;fillColor=#F8F8F8;" parent="97505-SNcamct329gDO7-1" vertex="1">
            <mxGeometry x="-969" y="-798.94" width="159" height="30" as="geometry" />
          </mxCell>
        </object>
        <object label="co:characteristic" Type="ObjectProperty" IRI="https://w3id.org/pmd/co/characteristic" id="4debdBr3dE2mrL2Lvimg-42">
          <mxCell style="endArrow=classic;html=1;exitX=1;exitY=0.5;exitDx=0;exitDy=0;endSize=8;arcSize=0;entryX=0;entryY=0.5;entryDx=0;entryDy=0;edgeStyle=orthogonalEdgeStyle;strokeColor=#EC3DFF;" parent="97505-SNcamct329gDO7-1" source="4debdBr3dE2mrL2Lvimg-34" target="4debdBr3dE2mrL2Lvimg-44" edge="1">
            <mxGeometry width="90" height="26" as="geometry">
              <mxPoint x="-1204.25095502068" y="-742.9381155934055" as="sourcePoint" />
              <mxPoint x="-1048" y="-688.94" as="targetPoint" />
              <mxPoint x="35" y="55" as="offset" />
              <Array as="points">
                <mxPoint x="-1089" y="-784" />
                <mxPoint x="-1089" y="-673" />
              </Array>
            </mxGeometry>
          </mxCell>
        </object>
        <object label="ns1:RelativeDensity" Type="Class" IRI="https://w3id.org/cpto/RelativeDensity" id="4debdBr3dE2mrL2Lvimg-43">
          <mxCell style="rounded=0;whiteSpace=wrap;html=1;snapToPoint=1;points=[[0.1,0],[0.2,0],[0.3,0],[0.4,0],[0.5,0],[0.6,0],[0.7,0],[0.8,0],[0.9,0],[0,0.1],[0,0.3],[0,0.5],[0,0.7],[0,0.9],[0.1,1],[0.2,1],[0.3,1],[0.4,1],[0.5,1],[0.6,1],[0.7,1],[0.8,1],[0.9,1],[1,0.1],[1,0.3],[1,0.5],[1,0.7],[1,0.9]];strokeColor=#0F0707;fillColor=#FFFFFF;" parent="97505-SNcamct329gDO7-1" vertex="1">
            <mxGeometry x="-969" y="-718" width="159" height="30" as="geometry" />
          </mxCell>
        </object>
        <object label="&lt;u&gt;ns1:Water_Density_&lt;/u&gt;" Type="Individual" IRI="Null" id="4debdBr3dE2mrL2Lvimg-44">
          <mxCell style="rounded=0;whiteSpace=wrap;html=1;snapToPoint=1;strokeColor=#0F0707;fillColor=#F8F8F8;" parent="97505-SNcamct329gDO7-1" vertex="1">
            <mxGeometry x="-969" y="-688" width="159" height="30" as="geometry" />
          </mxCell>
        </object>
        <object label="co:unit" Type="ObjectProperty" IRI="https://w3id.org/pmd/co/unit" id="4debdBr3dE2mrL2Lvimg-45">
          <mxCell style="endArrow=classic;html=1;endSize=8;arcSize=0;edgeStyle=orthogonalEdgeStyle;strokeColor=#FF6666;entryX=0;entryY=0.25;entryDx=0;entryDy=0;exitX=1;exitY=0.25;exitDx=0;exitDy=0;" parent="97505-SNcamct329gDO7-1" source="4debdBr3dE2mrL2Lvimg-41" target="4debdBr3dE2mrL2Lvimg-49" edge="1">
            <mxGeometry width="90" height="26" as="geometry">
              <mxPoint x="-789" y="-798" as="sourcePoint" />
              <mxPoint x="-469" y="-806" as="targetPoint" />
              <Array as="points">
                <mxPoint x="-789" y="-791" />
                <mxPoint x="-769" y="-791" />
                <mxPoint x="-769" y="-811" />
              </Array>
              <mxPoint y="-4" as="offset" />
            </mxGeometry>
          </mxCell>
        </object>
        <object label="&quot;$$Water_Content_Value$$&quot;^^xsd:float" Type="DataValue" IRI_DT="http://www.w3.org/2001/XMLSchema#float" id="4debdBr3dE2mrL2Lvimg-46">
          <mxCell style="rounded=0;whiteSpace=wrap;html=1;fillColor=#FF8C00;" parent="97505-SNcamct329gDO7-1" vertex="1">
            <mxGeometry x="-709" y="-789.94" width="259" height="26" as="geometry" />
          </mxCell>
        </object>
        <object label="&quot;$$Water_Density_Value$$&quot;^^xsd:float" Type="DataValue" IRI_DT="http://www.w3.org/2001/XMLSchema#float" id="4debdBr3dE2mrL2Lvimg-47">
          <mxCell style="rounded=0;whiteSpace=wrap;html=1;fillColor=#FF8C00;" parent="97505-SNcamct329gDO7-1" vertex="1">
            <mxGeometry x="-709" y="-679" width="259" height="26" as="geometry" />
          </mxCell>
        </object>
        <object label="ns8:Unit" Type="Class" IRI="http://qudt.org/schema/qudt/Unit" id="4debdBr3dE2mrL2Lvimg-48">
          <mxCell style="rounded=0;whiteSpace=wrap;html=1;snapToPoint=1;points=[[0.1,0],[0.2,0],[0.3,0],[0.4,0],[0.5,0],[0.6,0],[0.7,0],[0.8,0],[0.9,0],[0,0.1],[0,0.3],[0,0.5],[0,0.7],[0,0.9],[0.1,1],[0.2,1],[0.3,1],[0.4,1],[0.5,1],[0.6,1],[0.7,1],[0.8,1],[0.9,1],[1,0.1],[1,0.3],[1,0.5],[1,0.7],[1,0.9]];fillColor=#FFFFFF;" parent="97505-SNcamct329gDO7-1" vertex="1">
            <mxGeometry x="-709" y="-848" width="219" height="26.06" as="geometry" />
          </mxCell>
        </object>
        <object label="&lt;u&gt;ns1:##Water_Content_Unit##&lt;/u&gt;" Type="Individual" IRI="Null" id="4debdBr3dE2mrL2Lvimg-49">
          <mxCell style="rounded=0;whiteSpace=wrap;html=1;snapToPoint=1;" parent="97505-SNcamct329gDO7-1" vertex="1">
            <mxGeometry x="-709" y="-821.94" width="219" height="23.94" as="geometry" />
          </mxCell>
        </object>
        <object label="ns8:Unit" Type="Class" IRI="http://qudt.org/schema/qudt/Unit" id="4debdBr3dE2mrL2Lvimg-50">
          <mxCell style="rounded=0;whiteSpace=wrap;html=1;snapToPoint=1;points=[[0.1,0],[0.2,0],[0.3,0],[0.4,0],[0.5,0],[0.6,0],[0.7,0],[0.8,0],[0.9,0],[0,0.1],[0,0.3],[0,0.5],[0,0.7],[0,0.9],[0.1,1],[0.2,1],[0.3,1],[0.4,1],[0.5,1],[0.6,1],[0.7,1],[0.8,1],[0.9,1],[1,0.1],[1,0.3],[1,0.5],[1,0.7],[1,0.9]];fillColor=#FFFFFF;" parent="97505-SNcamct329gDO7-1" vertex="1">
            <mxGeometry x="-709" y="-748" width="219" height="30" as="geometry" />
          </mxCell>
        </object>
        <object label="&lt;u&gt;ns1:##Water_Density_Unit##&lt;/u&gt;" Type="Individual" IRI="Null" id="4debdBr3dE2mrL2Lvimg-51">
          <mxCell style="rounded=0;whiteSpace=wrap;html=1;snapToPoint=1;" parent="97505-SNcamct329gDO7-1" vertex="1">
            <mxGeometry x="-709" y="-718" width="219" height="30" as="geometry" />
          </mxCell>
        </object>
        <object label="co:unit" Type="ObjectProperty" IRI="https://w3id.org/pmd/co/unit" id="4debdBr3dE2mrL2Lvimg-52">
          <mxCell style="endArrow=classic;html=1;endSize=8;arcSize=0;edgeStyle=orthogonalEdgeStyle;strokeColor=#FF6666;entryX=0;entryY=0.25;entryDx=0;entryDy=0;exitX=1;exitY=0.25;exitDx=0;exitDy=0;" parent="97505-SNcamct329gDO7-1" source="4debdBr3dE2mrL2Lvimg-44" target="4debdBr3dE2mrL2Lvimg-51" edge="1">
            <mxGeometry width="90" height="26" as="geometry">
              <mxPoint x="-790" y="-679" as="sourcePoint" />
              <mxPoint x="-725" y="-696.03" as="targetPoint" />
              <Array as="points">
                <mxPoint x="-770" y="-680" />
                <mxPoint x="-770" y="-710" />
              </Array>
              <mxPoint x="-1" y="-2" as="offset" />
            </mxGeometry>
          </mxCell>
        </object>
        <object label="co:value" Type="DatatypeProperty" IRI="https://w3id.org/pmd/co/value" id="4debdBr3dE2mrL2Lvimg-53">
          <mxCell style="edgeStyle=orthogonalEdgeStyle;rounded=0;orthogonalLoop=1;jettySize=auto;html=1;fontSize=12;entryX=0;entryY=0.5;entryDx=0;entryDy=0;exitX=1;exitY=0.75;exitDx=0;exitDy=0;" parent="97505-SNcamct329gDO7-1" source="4debdBr3dE2mrL2Lvimg-44" target="4debdBr3dE2mrL2Lvimg-47" edge="1">
            <mxGeometry as="geometry">
              <mxPoint x="-819" y="-670" as="sourcePoint" />
              <mxPoint x="-99.79206374595879" y="-829.6506554754851" as="targetPoint" />
              <mxPoint as="offset" />
            </mxGeometry>
          </mxCell>
        </object>
        <object label="co:value" Type="DatatypeProperty" IRI="https://w3id.org/pmd/co/value" id="4debdBr3dE2mrL2Lvimg-54">
          <mxCell style="edgeStyle=orthogonalEdgeStyle;rounded=0;orthogonalLoop=1;jettySize=auto;html=1;fontSize=12;entryX=0;entryY=0.5;entryDx=0;entryDy=0;exitX=1;exitY=0.75;exitDx=0;exitDy=0;" parent="97505-SNcamct329gDO7-1" source="4debdBr3dE2mrL2Lvimg-41" target="4debdBr3dE2mrL2Lvimg-46" edge="1">
            <mxGeometry as="geometry">
              <mxPoint x="-809" y="-778" as="sourcePoint" />
              <mxPoint x="-179.79206374595879" y="-841.6506554754851" as="targetPoint" />
              <mxPoint as="offset" />
            </mxGeometry>
          </mxCell>
        </object>
        <object label="co:BaseMaterial" Type="Class" IRI="https://w3id.org/pmd/co/BaseMaterial" id="4debdBr3dE2mrL2Lvimg-55">
          <mxCell style="rounded=0;whiteSpace=wrap;html=1;snapToPoint=1;points=[[0.1,0],[0.2,0],[0.3,0],[0.4,0],[0.5,0],[0.6,0],[0.7,0],[0.8,0],[0.9,0],[0,0.1],[0,0.3],[0,0.5],[0,0.7],[0,0.9],[0.1,1],[0.2,1],[0.3,1],[0.4,1],[0.5,1],[0.6,1],[0.7,1],[0.8,1],[0.9,1],[1,0.1],[1,0.3],[1,0.5],[1,0.7],[1,0.9]];strokeColor=#0F0707;fillColor=#BAD1FF;" parent="97505-SNcamct329gDO7-1" vertex="1">
            <mxGeometry x="-1289.5" y="-519.94" width="130.5" height="30" as="geometry" />
          </mxCell>
        </object>
        <object label="&lt;u&gt;ns1:Aggregate1_&lt;/u&gt;" Type="Individual" IRI="Null" id="4debdBr3dE2mrL2Lvimg-56">
          <mxCell style="rounded=0;whiteSpace=wrap;html=1;snapToPoint=1;strokeColor=#0F0707;fillColor=#BAD1FF;" parent="97505-SNcamct329gDO7-1" vertex="1">
            <mxGeometry x="-1289.5" y="-489.94000000000005" width="130.5" height="30" as="geometry" />
          </mxCell>
        </object>
        <object label="co:composedOf" Type="ObjectProperty" IRI="https://w3id.org/pmd/co/composedOf" id="4debdBr3dE2mrL2Lvimg-57">
          <mxCell style="endArrow=classic;html=1;exitX=1;exitY=0.5;exitDx=0;exitDy=0;entryX=0;entryY=0.5;entryDx=0;entryDy=0;endSize=8;arcSize=0;edgeStyle=orthogonalEdgeStyle;strokeColor=#499100;" parent="97505-SNcamct329gDO7-1" source="4S3OoNcXCZUGaDcpZlmq-29" target="4debdBr3dE2mrL2Lvimg-56" edge="1">
            <mxGeometry width="90" height="26" as="geometry">
              <mxPoint x="-1480" y="174.0599999999995" as="sourcePoint" />
              <mxPoint x="-1253.4953989545036" y="87.05961827895226" as="targetPoint" />
              <mxPoint x="26" y="194" as="offset" />
              <Array as="points">
                <mxPoint x="-1420" y="-863" />
                <mxPoint x="-1420" y="-475" />
              </Array>
            </mxGeometry>
          </mxCell>
        </object>
        <object label="co:composedOf" Type="ObjectProperty" IRI="https://w3id.org/pmd/co/composedOf" id="4debdBr3dE2mrL2Lvimg-58">
          <mxCell style="endArrow=classic;html=1;exitX=1;exitY=0.5;exitDx=0;exitDy=0;endSize=8;arcSize=0;edgeStyle=orthogonalEdgeStyle;strokeColor=#499100;entryX=0;entryY=0.5;entryDx=0;entryDy=0;" parent="97505-SNcamct329gDO7-1" source="4debdBr3dE2mrL2Lvimg-56" target="4debdBr3dE2mrL2Lvimg-60" edge="1">
            <mxGeometry width="90" height="26" as="geometry">
              <mxPoint x="-1119.004435029871" y="-497.94223324046413" as="sourcePoint" />
              <mxPoint x="-969" y="-579" as="targetPoint" />
              <Array as="points">
                <mxPoint x="-1089" y="-475" />
                <mxPoint x="-1089" y="-575" />
              </Array>
              <mxPoint x="35" y="-50" as="offset" />
            </mxGeometry>
          </mxCell>
        </object>
        <object label="ns1:Aggregate" Type="Class" IRI="https://w3id.org/cpto/Aggregate" id="4debdBr3dE2mrL2Lvimg-59">
          <mxCell style="rounded=0;whiteSpace=wrap;html=1;snapToPoint=1;points=[[0.1,0],[0.2,0],[0.3,0],[0.4,0],[0.5,0],[0.6,0],[0.7,0],[0.8,0],[0.9,0],[0,0.1],[0,0.3],[0,0.5],[0,0.7],[0,0.9],[0.1,1],[0.2,1],[0.3,1],[0.4,1],[0.5,1],[0.6,1],[0.7,1],[0.8,1],[0.9,1],[1,0.1],[1,0.3],[1,0.5],[1,0.7],[1,0.9]];strokeColor=#0F0707;fillColor=#FFFFFF;" parent="97505-SNcamct329gDO7-1" vertex="1">
            <mxGeometry x="-969" y="-620" width="159" height="30" as="geometry" />
          </mxCell>
        </object>
        <object label="&lt;u&gt;ns1:Aggregate1_Type_&lt;/u&gt;" Type="Individual" IRI="Null" id="4debdBr3dE2mrL2Lvimg-60">
          <mxCell style="rounded=0;whiteSpace=wrap;html=1;snapToPoint=1;strokeColor=#0F0707;fillColor=#F8F8F8;" parent="97505-SNcamct329gDO7-1" vertex="1">
            <mxGeometry x="-969" y="-590" width="159" height="30" as="geometry" />
          </mxCell>
        </object>
        <object label="co:characteristic" Type="ObjectProperty" IRI="https://w3id.org/pmd/co/characteristic" id="4debdBr3dE2mrL2Lvimg-61">
          <mxCell style="endArrow=classic;html=1;exitX=1;exitY=0.5;exitDx=0;exitDy=0;endSize=8;arcSize=0;entryX=0;entryY=0.5;entryDx=0;entryDy=0;strokeColor=#EC3DFF;" parent="97505-SNcamct329gDO7-1" source="4debdBr3dE2mrL2Lvimg-56" target="4debdBr3dE2mrL2Lvimg-63" edge="1">
            <mxGeometry x="-10" y="729.06" width="90" height="26" as="geometry">
              <mxPoint x="-1108.9977024931068" y="-449.9439186724493" as="sourcePoint" />
              <mxPoint x="-1029" y="-459.94000000000005" as="targetPoint" />
              <mxPoint x="40" as="offset" />
            </mxGeometry>
          </mxCell>
        </object>
        <object label="ns1:Content" Type="Class" IRI="https://w3id.org/cpto/Content" id="4debdBr3dE2mrL2Lvimg-62">
          <mxCell style="rounded=0;whiteSpace=wrap;html=1;snapToPoint=1;points=[[0.1,0],[0.2,0],[0.3,0],[0.4,0],[0.5,0],[0.6,0],[0.7,0],[0.8,0],[0.9,0],[0,0.1],[0,0.3],[0,0.5],[0,0.7],[0,0.9],[0.1,1],[0.2,1],[0.3,1],[0.4,1],[0.5,1],[0.6,1],[0.7,1],[0.8,1],[0.9,1],[1,0.1],[1,0.3],[1,0.5],[1,0.7],[1,0.9]];strokeColor=#0F0707;fillColor=#FFFFFF;" parent="97505-SNcamct329gDO7-1" vertex="1">
            <mxGeometry x="-969" y="-519.94" width="159" height="30" as="geometry" />
          </mxCell>
        </object>
        <object label="&lt;u&gt;ns1:Aggregate1_Content_&lt;/u&gt;" Type="Individual" IRI="Null" id="4debdBr3dE2mrL2Lvimg-63">
          <mxCell style="rounded=0;whiteSpace=wrap;html=1;snapToPoint=1;strokeColor=#0F0707;fillColor=#F8F8F8;" parent="97505-SNcamct329gDO7-1" vertex="1">
            <mxGeometry x="-969" y="-489.94" width="159" height="30" as="geometry" />
          </mxCell>
        </object>
        <object label="co:characteristic" Type="ObjectProperty" IRI="https://w3id.org/pmd/co/characteristic" id="4debdBr3dE2mrL2Lvimg-64">
          <mxCell style="endArrow=classic;html=1;exitX=1;exitY=0.5;exitDx=0;exitDy=0;endSize=8;arcSize=0;entryX=0;entryY=0.5;entryDx=0;entryDy=0;edgeStyle=orthogonalEdgeStyle;strokeColor=#EC3DFF;" parent="97505-SNcamct329gDO7-1" source="4debdBr3dE2mrL2Lvimg-56" target="4debdBr3dE2mrL2Lvimg-66" edge="1">
            <mxGeometry width="90" height="26" as="geometry">
              <mxPoint x="-1204.25095502068" y="-433.93811559340554" as="sourcePoint" />
              <mxPoint x="-1048" y="-379.94000000000005" as="targetPoint" />
              <mxPoint x="35" y="58" as="offset" />
              <Array as="points">
                <mxPoint x="-1089" y="-475" />
                <mxPoint x="-1089" y="-358" />
              </Array>
            </mxGeometry>
          </mxCell>
        </object>
        <object label="ns1:AggregateSize" Type="Class" IRI="https://w3id.org/cpto/AggregateSize" id="4debdBr3dE2mrL2Lvimg-65">
          <mxCell style="rounded=0;whiteSpace=wrap;html=1;snapToPoint=1;points=[[0.1,0],[0.2,0],[0.3,0],[0.4,0],[0.5,0],[0.6,0],[0.7,0],[0.8,0],[0.9,0],[0,0.1],[0,0.3],[0,0.5],[0,0.7],[0,0.9],[0.1,1],[0.2,1],[0.3,1],[0.4,1],[0.5,1],[0.6,1],[0.7,1],[0.8,1],[0.9,1],[1,0.1],[1,0.3],[1,0.5],[1,0.7],[1,0.9]];strokeColor=#0F0707;fillColor=#FFFFFF;" parent="97505-SNcamct329gDO7-1" vertex="1">
            <mxGeometry x="-969" y="-403" width="159" height="30" as="geometry" />
          </mxCell>
        </object>
        <object label="&lt;u&gt;ns1:Aggregate1_Size_&lt;/u&gt;" Type="Individual" IRI="Null" id="4debdBr3dE2mrL2Lvimg-66">
          <mxCell style="rounded=0;whiteSpace=wrap;html=1;snapToPoint=1;strokeColor=#0F0707;fillColor=#F8F8F8;" parent="97505-SNcamct329gDO7-1" vertex="1">
            <mxGeometry x="-969" y="-373" width="159" height="30" as="geometry" />
          </mxCell>
        </object>
        <object label="co:unit" Type="ObjectProperty" IRI="https://w3id.org/pmd/co/unit" id="4debdBr3dE2mrL2Lvimg-67">
          <mxCell style="endArrow=classic;html=1;endSize=8;arcSize=0;edgeStyle=orthogonalEdgeStyle;strokeColor=#FF6666;exitX=1;exitY=0.25;exitDx=0;exitDy=0;entryX=0;entryY=0.25;entryDx=0;entryDy=0;" parent="97505-SNcamct329gDO7-1" source="4debdBr3dE2mrL2Lvimg-63" target="4debdBr3dE2mrL2Lvimg-71" edge="1">
            <mxGeometry width="90" height="26" as="geometry">
              <mxPoint x="-799" y="-489.94" as="sourcePoint" />
              <mxPoint x="-720" y="-506" as="targetPoint" />
              <Array as="points">
                <mxPoint x="-770" y="-482" />
                <mxPoint x="-770" y="-511" />
              </Array>
              <mxPoint x="-11" y="-2" as="offset" />
            </mxGeometry>
          </mxCell>
        </object>
        <object label="&quot;$$Aggregate1_Content_Value$$&quot;^^xsd:float" Type="DataValue" IRI_DT="http://www.w3.org/2001/XMLSchema#float" id="4debdBr3dE2mrL2Lvimg-68">
          <mxCell style="rounded=0;whiteSpace=wrap;html=1;fillColor=#FF8C00;" parent="97505-SNcamct329gDO7-1" vertex="1">
            <mxGeometry x="-710" y="-480" width="260" height="26" as="geometry" />
          </mxCell>
        </object>
        <object label="&quot;$$Aggregate1_Size_Value$$&quot;^^xsd:float" Type="DataValue" IRI_DT="http://www.w3.org/2001/XMLSchema#float" id="4debdBr3dE2mrL2Lvimg-69">
          <mxCell style="rounded=0;whiteSpace=wrap;html=1;fillColor=#FF8C00;" parent="97505-SNcamct329gDO7-1" vertex="1">
            <mxGeometry x="-709" y="-371" width="259" height="26" as="geometry" />
          </mxCell>
        </object>
        <object label="ns8:Unit" Type="Class" IRI="http://qudt.org/schema/qudt/Unit" id="4debdBr3dE2mrL2Lvimg-70">
          <mxCell style="rounded=0;whiteSpace=wrap;html=1;snapToPoint=1;points=[[0.1,0],[0.2,0],[0.3,0],[0.4,0],[0.5,0],[0.6,0],[0.7,0],[0.8,0],[0.9,0],[0,0.1],[0,0.3],[0,0.5],[0,0.7],[0,0.9],[0.1,1],[0.2,1],[0.3,1],[0.4,1],[0.5,1],[0.6,1],[0.7,1],[0.8,1],[0.9,1],[1,0.1],[1,0.3],[1,0.5],[1,0.7],[1,0.9]];fillColor=#FFFFFF;" parent="97505-SNcamct329gDO7-1" vertex="1">
            <mxGeometry x="-710" y="-549" width="220" height="30" as="geometry" />
          </mxCell>
        </object>
        <object label="&lt;u&gt;ns1:##Aggregate1_Content_Unit##&lt;/u&gt;" Type="Individual" IRI="Null" id="4debdBr3dE2mrL2Lvimg-71">
          <mxCell style="rounded=0;whiteSpace=wrap;html=1;snapToPoint=1;" parent="97505-SNcamct329gDO7-1" vertex="1">
            <mxGeometry x="-710" y="-519" width="220" height="30" as="geometry" />
          </mxCell>
        </object>
        <object label="ns8:Unit" Type="Class" IRI="http://qudt.org/schema/qudt/Unit" id="4debdBr3dE2mrL2Lvimg-72">
          <mxCell style="rounded=0;whiteSpace=wrap;html=1;snapToPoint=1;points=[[0.1,0],[0.2,0],[0.3,0],[0.4,0],[0.5,0],[0.6,0],[0.7,0],[0.8,0],[0.9,0],[0,0.1],[0,0.3],[0,0.5],[0,0.7],[0,0.9],[0.1,1],[0.2,1],[0.3,1],[0.4,1],[0.5,1],[0.6,1],[0.7,1],[0.8,1],[0.9,1],[1,0.1],[1,0.3],[1,0.5],[1,0.7],[1,0.9]];fillColor=#FFFFFF;" parent="97505-SNcamct329gDO7-1" vertex="1">
            <mxGeometry x="-709" y="-439" width="219" height="30" as="geometry" />
          </mxCell>
        </object>
        <object label="&lt;u&gt;ns1:##Aggregate1_Size_Unit##&lt;/u&gt;" Type="Individual" IRI="Null" id="4debdBr3dE2mrL2Lvimg-73">
          <mxCell style="rounded=0;whiteSpace=wrap;html=1;snapToPoint=1;" parent="97505-SNcamct329gDO7-1" vertex="1">
            <mxGeometry x="-709" y="-409" width="219" height="30" as="geometry" />
          </mxCell>
        </object>
        <object label="co:unit" Type="ObjectProperty" IRI="https://w3id.org/pmd/co/unit" id="4debdBr3dE2mrL2Lvimg-74">
          <mxCell style="endArrow=classic;html=1;exitX=1;exitY=0.25;exitDx=0;exitDy=0;endSize=8;arcSize=0;edgeStyle=orthogonalEdgeStyle;strokeColor=#FF6666;entryX=0;entryY=0.25;entryDx=0;entryDy=0;" parent="97505-SNcamct329gDO7-1" source="4debdBr3dE2mrL2Lvimg-66" target="4debdBr3dE2mrL2Lvimg-73" edge="1">
            <mxGeometry width="90" height="26" as="geometry">
              <mxPoint x="-818.9800000000005" y="-283.94000000000005" as="sourcePoint" />
              <mxPoint x="-720" y="-395" as="targetPoint" />
              <Array as="points">
                <mxPoint x="-810" y="-365" />
                <mxPoint x="-770" y="-365" />
                <mxPoint x="-770" y="-401" />
              </Array>
              <mxPoint x="-1" y="-5" as="offset" />
            </mxGeometry>
          </mxCell>
        </object>
        <object label="co:value" Type="DatatypeProperty" IRI="https://w3id.org/pmd/co/value" id="4debdBr3dE2mrL2Lvimg-75">
          <mxCell style="edgeStyle=orthogonalEdgeStyle;rounded=0;orthogonalLoop=1;jettySize=auto;html=1;exitX=1;exitY=0.75;exitDx=0;exitDy=0;fontSize=12;entryX=0;entryY=0.75;entryDx=0;entryDy=0;" parent="97505-SNcamct329gDO7-1" source="4debdBr3dE2mrL2Lvimg-66" target="4debdBr3dE2mrL2Lvimg-69" edge="1">
            <mxGeometry x="-304.7920637459588" y="-169.6506554754851" as="geometry">
              <mxPoint x="-183.79206374595879" y="-514.6506554754851" as="sourcePoint" />
              <mxPoint x="-99.79206374595879" y="-514.6506554754851" as="targetPoint" />
            </mxGeometry>
          </mxCell>
        </object>
        <object label="co:value" Type="DatatypeProperty" IRI="https://w3id.org/pmd/co/value" id="4debdBr3dE2mrL2Lvimg-76">
          <mxCell style="edgeStyle=orthogonalEdgeStyle;rounded=0;orthogonalLoop=1;jettySize=auto;html=1;exitX=1;exitY=0.75;exitDx=0;exitDy=0;fontSize=12;entryX=0;entryY=0.5;entryDx=0;entryDy=0;" parent="97505-SNcamct329gDO7-1" source="4debdBr3dE2mrL2Lvimg-63" target="4debdBr3dE2mrL2Lvimg-68" edge="1">
            <mxGeometry x="-304.7920637459588" y="-169.6506554754851" as="geometry">
              <mxPoint x="-263.7920637459588" y="-538.6506554754851" as="sourcePoint" />
              <mxPoint x="-179.79206374595879" y="-538.6506554754851" as="targetPoint" />
            </mxGeometry>
          </mxCell>
        </object>
        <object label="co:BaseMaterial" Type="Class" IRI="https://w3id.org/pmd/co/BaseMaterial" id="4debdBr3dE2mrL2Lvimg-77">
          <mxCell style="rounded=0;whiteSpace=wrap;html=1;snapToPoint=1;points=[[0.1,0],[0.2,0],[0.3,0],[0.4,0],[0.5,0],[0.6,0],[0.7,0],[0.8,0],[0.9,0],[0,0.1],[0,0.3],[0,0.5],[0,0.7],[0,0.9],[0.1,1],[0.2,1],[0.3,1],[0.4,1],[0.5,1],[0.6,1],[0.7,1],[0.8,1],[0.9,1],[1,0.1],[1,0.3],[1,0.5],[1,0.7],[1,0.9]];strokeColor=#0F0707;fillColor=#BAD1FF;" parent="97505-SNcamct329gDO7-1" vertex="1">
            <mxGeometry x="-1289.5" y="-85.94000000000005" width="130.5" height="30" as="geometry" />
          </mxCell>
        </object>
        <object label="&lt;u&gt;ns1:Addition1_&lt;/u&gt;" Type="Individual" IRI="Null" id="4debdBr3dE2mrL2Lvimg-78">
          <mxCell style="rounded=0;whiteSpace=wrap;html=1;snapToPoint=1;strokeColor=#0F0707;fillColor=#BAD1FF;" parent="97505-SNcamct329gDO7-1" vertex="1">
            <mxGeometry x="-1289.5" y="-55.940000000000055" width="130.5" height="30" as="geometry" />
          </mxCell>
        </object>
        <object label="co:composedOf" Type="ObjectProperty" IRI="https://w3id.org/pmd/co/composedOf" id="4debdBr3dE2mrL2Lvimg-79">
          <mxCell style="endArrow=classic;html=1;exitX=1;exitY=0.5;exitDx=0;exitDy=0;entryX=0;entryY=0.5;entryDx=0;entryDy=0;endSize=8;arcSize=0;edgeStyle=orthogonalEdgeStyle;strokeColor=#499100;" parent="97505-SNcamct329gDO7-1" source="4S3OoNcXCZUGaDcpZlmq-29" target="4debdBr3dE2mrL2Lvimg-78" edge="1">
            <mxGeometry width="90" height="26" as="geometry">
              <mxPoint x="-1480" y="514.0599999999995" as="sourcePoint" />
              <mxPoint x="-1253.4953989545036" y="427.05961827895226" as="targetPoint" />
              <mxPoint x="25" y="412" as="offset" />
              <Array as="points">
                <mxPoint x="-1420" y="-863" />
                <mxPoint x="-1420" y="-41" />
              </Array>
            </mxGeometry>
          </mxCell>
        </object>
        <object label="co:composedOf" Type="ObjectProperty" IRI="https://w3id.org/pmd/co/composedOf" id="4debdBr3dE2mrL2Lvimg-80">
          <mxCell style="endArrow=classic;html=1;exitX=1;exitY=0.5;exitDx=0;exitDy=0;entryX=0;entryY=0.5;entryDx=0;entryDy=0;endSize=8;arcSize=0;edgeStyle=orthogonalEdgeStyle;strokeColor=#499100;" parent="97505-SNcamct329gDO7-1" source="4debdBr3dE2mrL2Lvimg-78" target="4debdBr3dE2mrL2Lvimg-82" edge="1">
            <mxGeometry width="90" height="26" as="geometry">
              <mxPoint x="-1119.004435029871" y="-63.942233240464134" as="sourcePoint" />
              <mxPoint x="-995.004435029871" y="-63.942233240464134" as="targetPoint" />
              <Array as="points">
                <mxPoint x="-1089" y="-41" />
                <mxPoint x="-1089" y="-145" />
              </Array>
              <mxPoint x="35" y="-50" as="offset" />
            </mxGeometry>
          </mxCell>
        </object>
        <object label="ns1:Addition" Type="Class" IRI="https://w3id.org/cpto/Addition" id="4debdBr3dE2mrL2Lvimg-81">
          <mxCell style="rounded=0;whiteSpace=wrap;html=1;snapToPoint=1;points=[[0.1,0],[0.2,0],[0.3,0],[0.4,0],[0.5,0],[0.6,0],[0.7,0],[0.8,0],[0.9,0],[0,0.1],[0,0.3],[0,0.5],[0,0.7],[0,0.9],[0.1,1],[0.2,1],[0.3,1],[0.4,1],[0.5,1],[0.6,1],[0.7,1],[0.8,1],[0.9,1],[1,0.1],[1,0.3],[1,0.5],[1,0.7],[1,0.9]];strokeColor=#0F0707;fillColor=#FFFFFF;" parent="97505-SNcamct329gDO7-1" vertex="1">
            <mxGeometry x="-969" y="-190" width="160" height="30" as="geometry" />
          </mxCell>
        </object>
        <object label="&lt;u&gt;ns1:Addition1_Type_&lt;/u&gt;" Type="Individual" IRI="Null" id="4debdBr3dE2mrL2Lvimg-82">
          <mxCell style="rounded=0;whiteSpace=wrap;html=1;snapToPoint=1;strokeColor=#0F0707;fillColor=#F8F8F8;" parent="97505-SNcamct329gDO7-1" vertex="1">
            <mxGeometry x="-969" y="-160" width="160" height="30" as="geometry" />
          </mxCell>
        </object>
        <object label="co:characteristic" Type="ObjectProperty" IRI="https://w3id.org/pmd/co/characteristic" id="4debdBr3dE2mrL2Lvimg-83">
          <mxCell style="endArrow=classic;html=1;exitX=1;exitY=0.5;exitDx=0;exitDy=0;endSize=8;arcSize=0;entryX=0;entryY=0.5;entryDx=0;entryDy=0;strokeColor=#EC3DFF;" parent="97505-SNcamct329gDO7-1" source="4debdBr3dE2mrL2Lvimg-78" target="4debdBr3dE2mrL2Lvimg-85" edge="1">
            <mxGeometry x="-10" y="1257.06" width="90" height="26" as="geometry">
              <mxPoint x="-1108.9977024931068" y="-15.943918672449286" as="sourcePoint" />
              <mxPoint x="-1029" y="-25.940000000000055" as="targetPoint" />
              <mxPoint x="40" as="offset" />
            </mxGeometry>
          </mxCell>
        </object>
        <object label="ns1:Content" Type="Class" IRI="https://w3id.org/cpto/Content" id="4debdBr3dE2mrL2Lvimg-84">
          <mxCell style="rounded=0;whiteSpace=wrap;html=1;snapToPoint=1;points=[[0.1,0],[0.2,0],[0.3,0],[0.4,0],[0.5,0],[0.6,0],[0.7,0],[0.8,0],[0.9,0],[0,0.1],[0,0.3],[0,0.5],[0,0.7],[0,0.9],[0.1,1],[0.2,1],[0.3,1],[0.4,1],[0.5,1],[0.6,1],[0.7,1],[0.8,1],[0.9,1],[1,0.1],[1,0.3],[1,0.5],[1,0.7],[1,0.9]];strokeColor=#0F0707;fillColor=#FFFFFF;" parent="97505-SNcamct329gDO7-1" vertex="1">
            <mxGeometry x="-969" y="-85.94" width="159" height="30" as="geometry" />
          </mxCell>
        </object>
        <object label="&lt;u&gt;ns1:Addition1_Content_&lt;/u&gt;" Type="Individual" IRI="Null" id="4debdBr3dE2mrL2Lvimg-85">
          <mxCell style="rounded=0;whiteSpace=wrap;html=1;snapToPoint=1;strokeColor=#0F0707;fillColor=#F8F8F8;" parent="97505-SNcamct329gDO7-1" vertex="1">
            <mxGeometry x="-969" y="-55.94" width="159" height="30" as="geometry" />
          </mxCell>
        </object>
        <object label="co:characteristic" Type="ObjectProperty" IRI="https://w3id.org/pmd/co/characteristic" id="4debdBr3dE2mrL2Lvimg-86">
          <mxCell style="endArrow=classic;html=1;exitX=1;exitY=0.5;exitDx=0;exitDy=0;endSize=8;arcSize=0;entryX=0;entryY=0.5;entryDx=0;entryDy=0;edgeStyle=orthogonalEdgeStyle;strokeColor=#EC3DFF;" parent="97505-SNcamct329gDO7-1" source="4debdBr3dE2mrL2Lvimg-78" target="4debdBr3dE2mrL2Lvimg-88" edge="1">
            <mxGeometry width="90" height="26" as="geometry">
              <mxPoint x="-1204.25095502068" y="0.061884406594458596" as="sourcePoint" />
              <mxPoint x="-1048" y="54.059999999999945" as="targetPoint" />
              <mxPoint x="35" y="58" as="offset" />
              <Array as="points">
                <mxPoint x="-1089" y="-41" />
                <mxPoint x="-1089" y="75" />
              </Array>
            </mxGeometry>
          </mxCell>
        </object>
        <object label="ns1:RelativeDensity" Type="Class" IRI="https://w3id.org/cpto/RelativeDensity" id="4debdBr3dE2mrL2Lvimg-87">
          <mxCell style="rounded=0;whiteSpace=wrap;html=1;snapToPoint=1;points=[[0.1,0],[0.2,0],[0.3,0],[0.4,0],[0.5,0],[0.6,0],[0.7,0],[0.8,0],[0.9,0],[0,0.1],[0,0.3],[0,0.5],[0,0.7],[0,0.9],[0.1,1],[0.2,1],[0.3,1],[0.4,1],[0.5,1],[0.6,1],[0.7,1],[0.8,1],[0.9,1],[1,0.1],[1,0.3],[1,0.5],[1,0.7],[1,0.9]];strokeColor=#0F0707;fillColor=#FFFFFF;" parent="97505-SNcamct329gDO7-1" vertex="1">
            <mxGeometry x="-969" y="30" width="159" height="30" as="geometry" />
          </mxCell>
        </object>
        <object label="&lt;u&gt;ns1:Addition1_Density_&lt;/u&gt;" Type="Individual" IRI="Null" id="4debdBr3dE2mrL2Lvimg-88">
          <mxCell style="rounded=0;whiteSpace=wrap;html=1;snapToPoint=1;strokeColor=#0F0707;fillColor=#F8F8F8;" parent="97505-SNcamct329gDO7-1" vertex="1">
            <mxGeometry x="-969" y="60" width="159" height="30" as="geometry" />
          </mxCell>
        </object>
        <object label="co:unit" Type="ObjectProperty" IRI="https://w3id.org/pmd/co/unit" id="4debdBr3dE2mrL2Lvimg-89">
          <mxCell style="endArrow=classic;html=1;exitX=1;exitY=0.25;exitDx=0;exitDy=0;entryX=0;entryY=0.5;entryDx=0;entryDy=0;endSize=8;arcSize=0;edgeStyle=orthogonalEdgeStyle;strokeColor=#FF6666;" parent="97505-SNcamct329gDO7-1" source="4debdBr3dE2mrL2Lvimg-85" target="4debdBr3dE2mrL2Lvimg-93" edge="1">
            <mxGeometry width="90" height="26" as="geometry">
              <mxPoint x="-848.9952404785156" y="-15.939366455078243" as="sourcePoint" />
              <mxPoint x="-772.9952404785156" y="-15.939366455078243" as="targetPoint" />
              <Array as="points">
                <mxPoint x="-770" y="-48" />
                <mxPoint x="-770" y="-73" />
              </Array>
              <mxPoint x="-6" y="-2" as="offset" />
            </mxGeometry>
          </mxCell>
        </object>
        <object label="&quot;$$Addition1_Content_Value$$&quot;^^xsd:float" Type="DataValue" IRI_DT="http://www.w3.org/2001/XMLSchema#float" id="4debdBr3dE2mrL2Lvimg-90">
          <mxCell style="rounded=0;whiteSpace=wrap;html=1;fillColor=#FF8C00;" parent="97505-SNcamct329gDO7-1" vertex="1">
            <mxGeometry x="-709" y="-46.94" width="259" height="26" as="geometry" />
          </mxCell>
        </object>
        <object label="&quot;$$Addition1_Density_Value$$&quot;^^xsd:float" Type="DataValue" IRI_DT="http://www.w3.org/2001/XMLSchema#float" id="4debdBr3dE2mrL2Lvimg-91">
          <mxCell style="rounded=0;whiteSpace=wrap;html=1;fillColor=#FF8C00;" parent="97505-SNcamct329gDO7-1" vertex="1">
            <mxGeometry x="-709" y="62" width="259" height="26" as="geometry" />
          </mxCell>
        </object>
        <object label="ns8:Unit" Type="Class" IRI="http://qudt.org/schema/qudt/Unit" id="4debdBr3dE2mrL2Lvimg-92">
          <mxCell style="rounded=0;whiteSpace=wrap;html=1;snapToPoint=1;points=[[0.1,0],[0.2,0],[0.3,0],[0.4,0],[0.5,0],[0.6,0],[0.7,0],[0.8,0],[0.9,0],[0,0.1],[0,0.3],[0,0.5],[0,0.7],[0,0.9],[0.1,1],[0.2,1],[0.3,1],[0.4,1],[0.5,1],[0.6,1],[0.7,1],[0.8,1],[0.9,1],[1,0.1],[1,0.3],[1,0.5],[1,0.7],[1,0.9]];fillColor=#FFFFFF;" parent="97505-SNcamct329gDO7-1" vertex="1">
            <mxGeometry x="-709" y="-117.94" width="219" height="30" as="geometry" />
          </mxCell>
        </object>
        <object label="&lt;u&gt;ns1:##Addition1_Content_Unit##&lt;/u&gt;" Type="Individual" IRI="Null" id="4debdBr3dE2mrL2Lvimg-93">
          <mxCell style="rounded=0;whiteSpace=wrap;html=1;snapToPoint=1;" parent="97505-SNcamct329gDO7-1" vertex="1">
            <mxGeometry x="-709" y="-87.94" width="219" height="30" as="geometry" />
          </mxCell>
        </object>
        <object label="ns8:Unit" Type="Class" IRI="http://qudt.org/schema/qudt/Unit" id="4debdBr3dE2mrL2Lvimg-94">
          <mxCell style="rounded=0;whiteSpace=wrap;html=1;snapToPoint=1;points=[[0.1,0],[0.2,0],[0.3,0],[0.4,0],[0.5,0],[0.6,0],[0.7,0],[0.8,0],[0.9,0],[0,0.1],[0,0.3],[0,0.5],[0,0.7],[0,0.9],[0.1,1],[0.2,1],[0.3,1],[0.4,1],[0.5,1],[0.6,1],[0.7,1],[0.8,1],[0.9,1],[1,0.1],[1,0.3],[1,0.5],[1,0.7],[1,0.9]];fillColor=#FFFFFF;" parent="97505-SNcamct329gDO7-1" vertex="1">
            <mxGeometry x="-709" y="-7" width="219" height="30" as="geometry" />
          </mxCell>
        </object>
        <object label="&lt;u&gt;ns1:##Addition1_Density_Unit##&lt;/u&gt;" Type="Individual" IRI="Null" id="4debdBr3dE2mrL2Lvimg-95">
          <mxCell style="rounded=0;whiteSpace=wrap;html=1;snapToPoint=1;" parent="97505-SNcamct329gDO7-1" vertex="1">
            <mxGeometry x="-709" y="23" width="219" height="30" as="geometry" />
          </mxCell>
        </object>
        <object label="co:unit" Type="ObjectProperty" IRI="https://w3id.org/pmd/co/unit" id="4debdBr3dE2mrL2Lvimg-96">
          <mxCell style="endArrow=classic;html=1;exitX=1;exitY=0.25;exitDx=0;exitDy=0;entryX=0;entryY=0.25;entryDx=0;entryDy=0;endSize=8;arcSize=0;edgeStyle=orthogonalEdgeStyle;strokeColor=#FF6666;" parent="97505-SNcamct329gDO7-1" source="4debdBr3dE2mrL2Lvimg-88" target="4debdBr3dE2mrL2Lvimg-95" edge="1">
            <mxGeometry width="90" height="26" as="geometry">
              <mxPoint x="-818.9800000000005" y="149.05999999999995" as="sourcePoint" />
              <mxPoint x="-436.4800000000005" y="134.05999999999995" as="targetPoint" />
              <Array as="points">
                <mxPoint x="-770" y="67" />
                <mxPoint x="-770" y="31" />
                <mxPoint x="-709" y="31" />
              </Array>
              <mxPoint x="-1" y="-7" as="offset" />
            </mxGeometry>
          </mxCell>
        </object>
        <object label="co:value" Type="DatatypeProperty" IRI="https://w3id.org/pmd/co/value" id="4debdBr3dE2mrL2Lvimg-97">
          <mxCell style="edgeStyle=orthogonalEdgeStyle;rounded=0;orthogonalLoop=1;jettySize=auto;html=1;exitX=1;exitY=0.5;exitDx=0;exitDy=0;fontSize=12;entryX=0;entryY=0.75;entryDx=0;entryDy=0;" parent="97505-SNcamct329gDO7-1" source="4debdBr3dE2mrL2Lvimg-88" target="4debdBr3dE2mrL2Lvimg-91" edge="1">
            <mxGeometry x="-304.7920637459588" y="358.3493445245149" as="geometry">
              <mxPoint x="-183.79206374595879" y="-81.65065547548511" as="sourcePoint" />
              <mxPoint x="-99.79206374595879" y="-81.65065547548511" as="targetPoint" />
            </mxGeometry>
          </mxCell>
        </object>
        <object label="co:value" Type="DatatypeProperty" IRI="https://w3id.org/pmd/co/value" id="4debdBr3dE2mrL2Lvimg-98">
          <mxCell style="edgeStyle=orthogonalEdgeStyle;rounded=0;orthogonalLoop=1;jettySize=auto;html=1;exitX=1;exitY=0.75;exitDx=0;exitDy=0;fontSize=12;entryX=0;entryY=0.5;entryDx=0;entryDy=0;" parent="97505-SNcamct329gDO7-1" source="4debdBr3dE2mrL2Lvimg-85" target="4debdBr3dE2mrL2Lvimg-90" edge="1">
            <mxGeometry x="-304.7920637459588" y="358.3493445245149" as="geometry">
              <mxPoint x="-263.7920637459588" y="-104.65065547548511" as="sourcePoint" />
              <mxPoint x="-179.79206374595879" y="-104.65065547548511" as="targetPoint" />
            </mxGeometry>
          </mxCell>
        </object>
        <object label="co:BaseMaterial" Type="Class" IRI="https://w3id.org/pmd/co/BaseMaterial" id="4debdBr3dE2mrL2Lvimg-99">
          <mxCell style="rounded=0;whiteSpace=wrap;html=1;snapToPoint=1;points=[[0.1,0],[0.2,0],[0.3,0],[0.4,0],[0.5,0],[0.6,0],[0.7,0],[0.8,0],[0.9,0],[0,0.1],[0,0.3],[0,0.5],[0,0.7],[0,0.9],[0.1,1],[0.2,1],[0.3,1],[0.4,1],[0.5,1],[0.6,1],[0.7,1],[0.8,1],[0.9,1],[1,0.1],[1,0.3],[1,0.5],[1,0.7],[1,0.9]];strokeColor=#0F0707;fillColor=#BAD1FF;" parent="97505-SNcamct329gDO7-1" vertex="1">
            <mxGeometry x="-1289.5" y="228.05999999999995" width="130.5" height="30" as="geometry" />
          </mxCell>
        </object>
        <object label="&lt;u&gt;ns1:Admixture1_&lt;/u&gt;" Type="Individual" IRI="Null" id="4debdBr3dE2mrL2Lvimg-100">
          <mxCell style="rounded=0;whiteSpace=wrap;html=1;snapToPoint=1;strokeColor=#0F0707;fillColor=#BAD1FF;" parent="97505-SNcamct329gDO7-1" vertex="1">
            <mxGeometry x="-1289.5" y="258.05999999999995" width="130.5" height="30" as="geometry" />
          </mxCell>
        </object>
        <object label="co:composedOf" Type="ObjectProperty" IRI="https://w3id.org/pmd/co/composedOf" id="4debdBr3dE2mrL2Lvimg-101">
          <mxCell style="endArrow=classic;html=1;entryX=0;entryY=0.5;entryDx=0;entryDy=0;endSize=8;arcSize=0;edgeStyle=orthogonalEdgeStyle;exitX=1;exitY=0.5;exitDx=0;exitDy=0;strokeColor=#499100;" parent="97505-SNcamct329gDO7-1" source="4S3OoNcXCZUGaDcpZlmq-29" target="4debdBr3dE2mrL2Lvimg-100" edge="1">
            <mxGeometry width="90" height="26" as="geometry">
              <mxPoint x="-1497" y="-813.5294117647059" as="sourcePoint" />
              <mxPoint x="-1253.4953989545036" y="787.0596182789523" as="targetPoint" />
              <mxPoint x="26" y="568" as="offset" />
              <Array as="points">
                <mxPoint x="-1420" y="-863" />
                <mxPoint x="-1420" y="273" />
              </Array>
            </mxGeometry>
          </mxCell>
        </object>
        <object label="co:composedOf" Type="ObjectProperty" IRI="https://w3id.org/pmd/co/composedOf" id="4debdBr3dE2mrL2Lvimg-102">
          <mxCell style="endArrow=classic;html=1;exitX=1;exitY=0.5;exitDx=0;exitDy=0;entryX=0;entryY=0.5;entryDx=0;entryDy=0;endSize=8;arcSize=0;edgeStyle=orthogonalEdgeStyle;strokeColor=#499100;" parent="97505-SNcamct329gDO7-1" source="4debdBr3dE2mrL2Lvimg-100" target="4debdBr3dE2mrL2Lvimg-104" edge="1">
            <mxGeometry width="90" height="26" as="geometry">
              <mxPoint x="-1119.004435029871" y="250.05776675953587" as="sourcePoint" />
              <mxPoint x="-995.004435029871" y="250.05776675953587" as="targetPoint" />
              <Array as="points">
                <mxPoint x="-1089" y="273" />
                <mxPoint x="-1089" y="174" />
              </Array>
              <mxPoint x="35" y="-50" as="offset" />
            </mxGeometry>
          </mxCell>
        </object>
        <object label="ns1:Admixture" Type="Class" IRI="https://w3id.org/cpto/Admixture" id="4debdBr3dE2mrL2Lvimg-103">
          <mxCell style="rounded=0;whiteSpace=wrap;html=1;snapToPoint=1;points=[[0.1,0],[0.2,0],[0.3,0],[0.4,0],[0.5,0],[0.6,0],[0.7,0],[0.8,0],[0.9,0],[0,0.1],[0,0.3],[0,0.5],[0,0.7],[0,0.9],[0.1,1],[0.2,1],[0.3,1],[0.4,1],[0.5,1],[0.6,1],[0.7,1],[0.8,1],[0.9,1],[1,0.1],[1,0.3],[1,0.5],[1,0.7],[1,0.9]];strokeColor=#0F0707;fillColor=#FFFFFF;" parent="97505-SNcamct329gDO7-1" vertex="1">
            <mxGeometry x="-969" y="129" width="160" height="30" as="geometry" />
          </mxCell>
        </object>
        <object label="&lt;u&gt;ns1:Admixture1_Type_&lt;/u&gt;" Type="Individual" IRI="Null" id="4debdBr3dE2mrL2Lvimg-104">
          <mxCell style="rounded=0;whiteSpace=wrap;html=1;snapToPoint=1;strokeColor=#0F0707;fillColor=#F8F8F8;" parent="97505-SNcamct329gDO7-1" vertex="1">
            <mxGeometry x="-969" y="159" width="160" height="30" as="geometry" />
          </mxCell>
        </object>
        <object label="co:characteristic" Type="ObjectProperty" IRI="https://w3id.org/pmd/co/characteristic" id="4debdBr3dE2mrL2Lvimg-105">
          <mxCell style="endArrow=classic;html=1;exitX=1;exitY=0.5;exitDx=0;exitDy=0;endSize=8;arcSize=0;entryX=0;entryY=0.5;entryDx=0;entryDy=0;strokeColor=#EC3DFF;" parent="97505-SNcamct329gDO7-1" source="4debdBr3dE2mrL2Lvimg-100" target="4debdBr3dE2mrL2Lvimg-107" edge="1">
            <mxGeometry x="-10" y="1617.06" width="90" height="26" as="geometry">
              <mxPoint x="-1108.9977024931068" y="298.0560813275507" as="sourcePoint" />
              <mxPoint x="-1029" y="288.05999999999995" as="targetPoint" />
              <mxPoint x="40" as="offset" />
            </mxGeometry>
          </mxCell>
        </object>
        <object label="ns1:Content" Type="Class" IRI="https://w3id.org/cpto/Content" id="4debdBr3dE2mrL2Lvimg-106">
          <mxCell style="rounded=0;whiteSpace=wrap;html=1;snapToPoint=1;points=[[0.1,0],[0.2,0],[0.3,0],[0.4,0],[0.5,0],[0.6,0],[0.7,0],[0.8,0],[0.9,0],[0,0.1],[0,0.3],[0,0.5],[0,0.7],[0,0.9],[0.1,1],[0.2,1],[0.3,1],[0.4,1],[0.5,1],[0.6,1],[0.7,1],[0.8,1],[0.9,1],[1,0.1],[1,0.3],[1,0.5],[1,0.7],[1,0.9]];strokeColor=#0F0707;fillColor=#FFFFFF;" parent="97505-SNcamct329gDO7-1" vertex="1">
            <mxGeometry x="-969" y="228.05999999999995" width="159" height="30" as="geometry" />
          </mxCell>
        </object>
        <object label="&lt;u&gt;ns1:Admixture1_Content_&lt;/u&gt;" Type="Individual" IRI="Null" id="4debdBr3dE2mrL2Lvimg-107">
          <mxCell style="rounded=0;whiteSpace=wrap;html=1;snapToPoint=1;strokeColor=#0F0707;fillColor=#F8F8F8;" parent="97505-SNcamct329gDO7-1" vertex="1">
            <mxGeometry x="-969" y="258.05999999999995" width="159" height="30" as="geometry" />
          </mxCell>
        </object>
        <object label="co:characteristic" Type="ObjectProperty" IRI="https://w3id.org/pmd/co/characteristic" id="4debdBr3dE2mrL2Lvimg-108">
          <mxCell style="endArrow=classic;html=1;exitX=1;exitY=0.5;exitDx=0;exitDy=0;endSize=8;arcSize=0;entryX=0;entryY=0.5;entryDx=0;entryDy=0;edgeStyle=orthogonalEdgeStyle;strokeColor=#EC3DFF;" parent="97505-SNcamct329gDO7-1" source="4debdBr3dE2mrL2Lvimg-100" target="4debdBr3dE2mrL2Lvimg-110" edge="1">
            <mxGeometry width="90" height="26" as="geometry">
              <mxPoint x="-1204.25095502068" y="314.06188440659446" as="sourcePoint" />
              <mxPoint x="-1048" y="368.05999999999995" as="targetPoint" />
              <mxPoint x="35" y="58" as="offset" />
              <Array as="points">
                <mxPoint x="-1089" y="273" />
                <mxPoint x="-1089" y="389" />
              </Array>
            </mxGeometry>
          </mxCell>
        </object>
        <object label="ns1:RelativeDensity" Type="Class" IRI="https://w3id.org/cpto/RelativeDensity" id="4debdBr3dE2mrL2Lvimg-109">
          <mxCell style="rounded=0;whiteSpace=wrap;html=1;snapToPoint=1;points=[[0.1,0],[0.2,0],[0.3,0],[0.4,0],[0.5,0],[0.6,0],[0.7,0],[0.8,0],[0.9,0],[0,0.1],[0,0.3],[0,0.5],[0,0.7],[0,0.9],[0.1,1],[0.2,1],[0.3,1],[0.4,1],[0.5,1],[0.6,1],[0.7,1],[0.8,1],[0.9,1],[1,0.1],[1,0.3],[1,0.5],[1,0.7],[1,0.9]];strokeColor=#0F0707;fillColor=#FFFFFF;" parent="97505-SNcamct329gDO7-1" vertex="1">
            <mxGeometry x="-969" y="344" width="159" height="30" as="geometry" />
          </mxCell>
        </object>
        <object label="&lt;u&gt;ns1:Admixture1_Density_&lt;/u&gt;" Type="Individual" IRI="Null" id="4debdBr3dE2mrL2Lvimg-110">
          <mxCell style="rounded=0;whiteSpace=wrap;html=1;snapToPoint=1;strokeColor=#0F0707;fillColor=#F8F8F8;" parent="97505-SNcamct329gDO7-1" vertex="1">
            <mxGeometry x="-969" y="374" width="159" height="30" as="geometry" />
          </mxCell>
        </object>
        <object label="co:unit" Type="ObjectProperty" IRI="https://w3id.org/pmd/co/unit" id="4debdBr3dE2mrL2Lvimg-111">
          <mxCell style="endArrow=classic;html=1;exitX=1;exitY=0.25;exitDx=0;exitDy=0;entryX=0;entryY=0.25;entryDx=0;entryDy=0;endSize=8;arcSize=0;edgeStyle=orthogonalEdgeStyle;strokeColor=#FF6666;" parent="97505-SNcamct329gDO7-1" source="4debdBr3dE2mrL2Lvimg-107" target="4debdBr3dE2mrL2Lvimg-115" edge="1">
            <mxGeometry width="90" height="26" as="geometry">
              <mxPoint x="-848.9952404785156" y="298.06063354492176" as="sourcePoint" />
              <mxPoint x="-772.9952404785156" y="298.06063354492176" as="targetPoint" />
              <Array as="points">
                <mxPoint x="-770" y="266" />
                <mxPoint x="-770" y="236" />
                <mxPoint x="-738" y="236" />
              </Array>
              <mxPoint x="-6" as="offset" />
            </mxGeometry>
          </mxCell>
        </object>
        <object label="&quot;$$Admixture1_Content_Value$$&quot;^^xsd:float" Type="DataValue" IRI_DT="http://www.w3.org/2001/XMLSchema#float" id="4debdBr3dE2mrL2Lvimg-112">
          <mxCell style="rounded=0;whiteSpace=wrap;html=1;fillColor=#FF8C00;" parent="97505-SNcamct329gDO7-1" vertex="1">
            <mxGeometry x="-709" y="267.05999999999995" width="258" height="26" as="geometry" />
          </mxCell>
        </object>
        <object label="&quot;$$Admixture1_Density_Value$$&quot;^^xsd:float" Type="DataValue" IRI_DT="http://www.w3.org/2001/XMLSchema#float" id="4debdBr3dE2mrL2Lvimg-113">
          <mxCell style="rounded=0;whiteSpace=wrap;html=1;fillColor=#FF8C00;" parent="97505-SNcamct329gDO7-1" vertex="1">
            <mxGeometry x="-709" y="376" width="258" height="26" as="geometry" />
          </mxCell>
        </object>
        <object label="ns8:Unit" Type="Class" IRI="http://qudt.org/schema/qudt/Unit" id="4debdBr3dE2mrL2Lvimg-114">
          <mxCell style="rounded=0;whiteSpace=wrap;html=1;snapToPoint=1;points=[[0.1,0],[0.2,0],[0.3,0],[0.4,0],[0.5,0],[0.6,0],[0.7,0],[0.8,0],[0.9,0],[0,0.1],[0,0.3],[0,0.5],[0,0.7],[0,0.9],[0.1,1],[0.2,1],[0.3,1],[0.4,1],[0.5,1],[0.6,1],[0.7,1],[0.8,1],[0.9,1],[1,0.1],[1,0.3],[1,0.5],[1,0.7],[1,0.9]];fillColor=#FFFFFF;" parent="97505-SNcamct329gDO7-1" vertex="1">
            <mxGeometry x="-709" y="198.05999999999995" width="219" height="30" as="geometry" />
          </mxCell>
        </object>
        <object label="&lt;u&gt;ns1:##Admixture1_Content_Unit##&lt;/u&gt;" Type="Individual" IRI="Null" id="4debdBr3dE2mrL2Lvimg-115">
          <mxCell style="rounded=0;whiteSpace=wrap;html=1;snapToPoint=1;" parent="97505-SNcamct329gDO7-1" vertex="1">
            <mxGeometry x="-709" y="228.05999999999995" width="219" height="30" as="geometry" />
          </mxCell>
        </object>
        <object label="ns8:Unit" Type="Class" IRI="http://qudt.org/schema/qudt/Unit" id="4debdBr3dE2mrL2Lvimg-116">
          <mxCell style="rounded=0;whiteSpace=wrap;html=1;snapToPoint=1;points=[[0.1,0],[0.2,0],[0.3,0],[0.4,0],[0.5,0],[0.6,0],[0.7,0],[0.8,0],[0.9,0],[0,0.1],[0,0.3],[0,0.5],[0,0.7],[0,0.9],[0.1,1],[0.2,1],[0.3,1],[0.4,1],[0.5,1],[0.6,1],[0.7,1],[0.8,1],[0.9,1],[1,0.1],[1,0.3],[1,0.5],[1,0.7],[1,0.9]];fillColor=#FFFFFF;" parent="97505-SNcamct329gDO7-1" vertex="1">
            <mxGeometry x="-709" y="307" width="219" height="30" as="geometry" />
          </mxCell>
        </object>
        <object label="&lt;u&gt;ns1:##Admixture1_Density_Unit##&lt;/u&gt;" Type="Individual" IRI="Null" id="4debdBr3dE2mrL2Lvimg-117">
          <mxCell style="rounded=0;whiteSpace=wrap;html=1;snapToPoint=1;" parent="97505-SNcamct329gDO7-1" vertex="1">
            <mxGeometry x="-709" y="337" width="219" height="30" as="geometry" />
          </mxCell>
        </object>
        <object label="co:unit" Type="ObjectProperty" IRI="https://w3id.org/pmd/co/unit" id="4debdBr3dE2mrL2Lvimg-118">
          <mxCell style="endArrow=classic;html=1;exitX=1;exitY=0.25;exitDx=0;exitDy=0;endSize=8;arcSize=0;edgeStyle=orthogonalEdgeStyle;strokeColor=#FF6666;entryX=0;entryY=0.25;entryDx=0;entryDy=0;" parent="97505-SNcamct329gDO7-1" source="4debdBr3dE2mrL2Lvimg-110" target="4debdBr3dE2mrL2Lvimg-117" edge="1">
            <mxGeometry width="90" height="26" as="geometry">
              <mxPoint x="-818.9800000000005" y="463.05999999999995" as="sourcePoint" />
              <mxPoint x="-710" y="351" as="targetPoint" />
              <Array as="points">
                <mxPoint x="-770" y="381" />
                <mxPoint x="-770" y="345" />
                <mxPoint x="-709" y="345" />
              </Array>
              <mxPoint x="-5" y="-2" as="offset" />
            </mxGeometry>
          </mxCell>
        </object>
        <object label="co:value" Type="DatatypeProperty" IRI="https://w3id.org/pmd/co/value" id="4debdBr3dE2mrL2Lvimg-119">
          <mxCell style="edgeStyle=orthogonalEdgeStyle;rounded=0;orthogonalLoop=1;jettySize=auto;html=1;exitX=1;exitY=0.75;exitDx=0;exitDy=0;fontSize=12;entryX=0;entryY=0.75;entryDx=0;entryDy=0;" parent="97505-SNcamct329gDO7-1" source="4debdBr3dE2mrL2Lvimg-110" target="4debdBr3dE2mrL2Lvimg-113" edge="1">
            <mxGeometry x="-304.7920637459588" y="718.3493445245149" as="geometry">
              <mxPoint x="-183.79206374595879" y="232.3493445245149" as="sourcePoint" />
              <mxPoint x="-99.79206374595879" y="232.3493445245149" as="targetPoint" />
            </mxGeometry>
          </mxCell>
        </object>
        <object label="co:value" Type="DatatypeProperty" IRI="https://w3id.org/pmd/co/value" id="4debdBr3dE2mrL2Lvimg-120">
          <mxCell style="edgeStyle=orthogonalEdgeStyle;rounded=0;orthogonalLoop=1;jettySize=auto;html=1;exitX=1;exitY=0.75;exitDx=0;exitDy=0;fontSize=12;entryX=0;entryY=0.5;entryDx=0;entryDy=0;" parent="97505-SNcamct329gDO7-1" source="4debdBr3dE2mrL2Lvimg-107" target="4debdBr3dE2mrL2Lvimg-112" edge="1">
            <mxGeometry x="-304.7920637459588" y="718.3493445245149" as="geometry">
              <mxPoint x="-263.7920637459588" y="209.3493445245149" as="sourcePoint" />
              <mxPoint x="-179.79206374595879" y="209.3493445245149" as="targetPoint" />
            </mxGeometry>
          </mxCell>
        </object>
        <object label="&quot;$$Cement1_Type_Value$$&quot;^^xsd:string" Type="DataValue" IRI_DT="http://www.w3.org/2001/XMLSchema#string" id="iS1LArIpgq8bk9GByBnp-0">
          <mxCell style="rounded=0;whiteSpace=wrap;html=1;fillColor=#FF8C00;" parent="97505-SNcamct329gDO7-1" vertex="1">
            <mxGeometry x="-709" y="-1208.06" width="259" height="26" as="geometry" />
          </mxCell>
        </object>
        <object label="co:value" Type="DatatypeProperty" IRI="https://w3id.org/pmd/co/value" id="iS1LArIpgq8bk9GByBnp-1">
          <mxCell style="edgeStyle=orthogonalEdgeStyle;rounded=0;orthogonalLoop=1;jettySize=auto;html=1;exitX=1;exitY=0.5;exitDx=0;exitDy=0;fontSize=12;entryX=0;entryY=0.5;entryDx=0;entryDy=0;" parent="97505-SNcamct329gDO7-1" source="f1eq6-F0vzFCOijgBrFX-18" target="iS1LArIpgq8bk9GByBnp-0" edge="1">
            <mxGeometry x="-314.7920637459588" y="-979.5806554754851" as="geometry">
              <mxPoint x="-849" y="-1222.9899999999998" as="sourcePoint" />
              <mxPoint x="-719" y="-1197.06" as="targetPoint" />
            </mxGeometry>
          </mxCell>
        </object>
        <object label="&quot;$$Water_Type_Value$$&quot;^^xsd:string" Type="DataValue" IRI_DT="http://www.w3.org/2001/XMLSchema#string" id="iS1LArIpgq8bk9GByBnp-2">
          <mxCell style="rounded=0;whiteSpace=wrap;html=1;fillColor=#FF8C00;" parent="97505-SNcamct329gDO7-1" vertex="1">
            <mxGeometry x="-710" y="-888" width="260" height="26" as="geometry" />
          </mxCell>
        </object>
        <object label="co:value" Type="DatatypeProperty" IRI="https://w3id.org/pmd/co/value" id="iS1LArIpgq8bk9GByBnp-3">
          <mxCell style="edgeStyle=orthogonalEdgeStyle;rounded=0;orthogonalLoop=1;jettySize=auto;html=1;exitX=1;exitY=0.5;exitDx=0;exitDy=0;fontSize=12;entryX=0;entryY=0.5;entryDx=0;entryDy=0;" parent="97505-SNcamct329gDO7-1" source="4debdBr3dE2mrL2Lvimg-38" target="iS1LArIpgq8bk9GByBnp-2" edge="1">
            <mxGeometry x="-304.7920637459588" y="-602.520655475485" as="geometry">
              <mxPoint x="-839" y="-886" as="sourcePoint" />
              <mxPoint x="-99.79206374595879" y="-933.520655475485" as="targetPoint" />
            </mxGeometry>
          </mxCell>
        </object>
        <object label="&quot;$$Aggregate1_Type_Value$$&quot;^^xsd:string" Type="DataValue" IRI_DT="http://www.w3.org/2001/XMLSchema#string" id="iS1LArIpgq8bk9GByBnp-4">
          <mxCell style="rounded=0;whiteSpace=wrap;html=1;fillColor=#FF8C00;" parent="97505-SNcamct329gDO7-1" vertex="1">
            <mxGeometry x="-709" y="-590" width="259" height="26" as="geometry" />
          </mxCell>
        </object>
        <object label="co:value" Type="DatatypeProperty" IRI="https://w3id.org/pmd/co/value" id="iS1LArIpgq8bk9GByBnp-5">
          <mxCell style="edgeStyle=orthogonalEdgeStyle;rounded=0;orthogonalLoop=1;jettySize=auto;html=1;exitX=1;exitY=0.5;exitDx=0;exitDy=0;fontSize=12;entryX=0;entryY=0.5;entryDx=0;entryDy=0;" parent="97505-SNcamct329gDO7-1" source="4debdBr3dE2mrL2Lvimg-60" target="iS1LArIpgq8bk9GByBnp-4" edge="1">
            <mxGeometry x="-204.79206374595879" y="-307.550655475485" as="geometry">
              <mxPoint x="-769" y="-620.03" as="sourcePoint" />
              <mxPoint x="0.20793625404121485" y="-679.550655475485" as="targetPoint" />
            </mxGeometry>
          </mxCell>
        </object>
        <object label="co:characteristic" Type="ObjectProperty" IRI="https://w3id.org/pmd/co/characteristic" id="iS1LArIpgq8bk9GByBnp-7">
          <mxCell style="endArrow=classic;html=1;exitX=1;exitY=0.5;exitDx=0;exitDy=0;endSize=8;arcSize=0;entryX=0;entryY=0.5;entryDx=0;entryDy=0;edgeStyle=orthogonalEdgeStyle;strokeColor=#EC3DFF;" parent="97505-SNcamct329gDO7-1" source="4debdBr3dE2mrL2Lvimg-56" target="iS1LArIpgq8bk9GByBnp-9" edge="1">
            <mxGeometry width="90" height="26" as="geometry">
              <mxPoint x="-1159" y="-319.00000000000006" as="sourcePoint" />
              <mxPoint x="-1048" y="-224.00000000000006" as="targetPoint" />
              <mxPoint x="35" y="115" as="offset" />
              <Array as="points">
                <mxPoint x="-1089" y="-475" />
                <mxPoint x="-1089" y="-245" />
              </Array>
            </mxGeometry>
          </mxCell>
        </object>
        <object label="ns1:RelativeDensity" Type="Class" IRI="https://w3id.org/cpto/RelativeDensity" id="iS1LArIpgq8bk9GByBnp-8">
          <mxCell style="rounded=0;whiteSpace=wrap;html=1;snapToPoint=1;points=[[0.1,0],[0.2,0],[0.3,0],[0.4,0],[0.5,0],[0.6,0],[0.7,0],[0.8,0],[0.9,0],[0,0.1],[0,0.3],[0,0.5],[0,0.7],[0,0.9],[0.1,1],[0.2,1],[0.3,1],[0.4,1],[0.5,1],[0.6,1],[0.7,1],[0.8,1],[0.9,1],[1,0.1],[1,0.3],[1,0.5],[1,0.7],[1,0.9]];strokeColor=#0F0707;fillColor=#FFFFFF;" parent="97505-SNcamct329gDO7-1" vertex="1">
            <mxGeometry x="-969" y="-290.06" width="159" height="30" as="geometry" />
          </mxCell>
        </object>
        <object label="&lt;u&gt;ns1:Aggregate1_Density_&lt;/u&gt;" Type="Individual" IRI="Null" id="iS1LArIpgq8bk9GByBnp-9">
          <mxCell style="rounded=0;whiteSpace=wrap;html=1;snapToPoint=1;strokeColor=#0F0707;fillColor=#F8F8F8;" parent="97505-SNcamct329gDO7-1" vertex="1">
            <mxGeometry x="-969" y="-260.06" width="159" height="30" as="geometry" />
          </mxCell>
        </object>
        <object label="&quot;$$Aggregate1_Density_Value$$&quot;^^xsd:float" Type="DataValue" IRI_DT="http://www.w3.org/2001/XMLSchema#float" id="iS1LArIpgq8bk9GByBnp-10">
          <mxCell style="rounded=0;whiteSpace=wrap;html=1;fillColor=#FF8C00;" parent="97505-SNcamct329gDO7-1" vertex="1">
            <mxGeometry x="-710" y="-257.06" width="260" height="26" as="geometry" />
          </mxCell>
        </object>
        <object label="ns8:Unit" Type="Class" IRI="http://qudt.org/schema/qudt/Unit" id="iS1LArIpgq8bk9GByBnp-11">
          <mxCell style="rounded=0;whiteSpace=wrap;html=1;snapToPoint=1;points=[[0.1,0],[0.2,0],[0.3,0],[0.4,0],[0.5,0],[0.6,0],[0.7,0],[0.8,0],[0.9,0],[0,0.1],[0,0.3],[0,0.5],[0,0.7],[0,0.9],[0.1,1],[0.2,1],[0.3,1],[0.4,1],[0.5,1],[0.6,1],[0.7,1],[0.8,1],[0.9,1],[1,0.1],[1,0.3],[1,0.5],[1,0.7],[1,0.9]];fillColor=#FFFFFF;" parent="97505-SNcamct329gDO7-1" vertex="1">
            <mxGeometry x="-709" y="-328" width="219" height="30" as="geometry" />
          </mxCell>
        </object>
        <object label="&lt;u&gt;ns1:##Aggregate1_Density_Unit##&lt;/u&gt;" Type="Individual" IRI="Null" id="iS1LArIpgq8bk9GByBnp-12">
          <mxCell style="rounded=0;whiteSpace=wrap;html=1;snapToPoint=1;" parent="97505-SNcamct329gDO7-1" vertex="1">
            <mxGeometry x="-709" y="-298" width="219" height="30" as="geometry" />
          </mxCell>
        </object>
        <object label="co:unit" Type="ObjectProperty" IRI="https://w3id.org/pmd/co/unit" id="iS1LArIpgq8bk9GByBnp-13">
          <mxCell style="endArrow=classic;html=1;exitX=1;exitY=0.25;exitDx=0;exitDy=0;entryX=0;entryY=0.25;entryDx=0;entryDy=0;endSize=8;arcSize=0;edgeStyle=orthogonalEdgeStyle;strokeColor=#FF6666;" parent="97505-SNcamct329gDO7-1" source="iS1LArIpgq8bk9GByBnp-9" target="iS1LArIpgq8bk9GByBnp-12" edge="1">
            <mxGeometry width="90" height="26" as="geometry">
              <mxPoint x="-818.9800000000005" y="-171.00000000000006" as="sourcePoint" />
              <mxPoint x="-436.4800000000005" y="-186.00000000000006" as="targetPoint" />
              <Array as="points">
                <mxPoint x="-810" y="-253" />
                <mxPoint x="-770" y="-253" />
                <mxPoint x="-770" y="-290" />
              </Array>
              <mxPoint x="-1" y="-6" as="offset" />
            </mxGeometry>
          </mxCell>
        </object>
        <object label="co:value" Type="DatatypeProperty" IRI="https://w3id.org/pmd/co/value" id="iS1LArIpgq8bk9GByBnp-14">
          <mxCell style="edgeStyle=orthogonalEdgeStyle;rounded=0;orthogonalLoop=1;jettySize=auto;html=1;fontSize=12;entryX=0;entryY=0.75;entryDx=0;entryDy=0;exitX=1;exitY=0.75;exitDx=0;exitDy=0;" parent="97505-SNcamct329gDO7-1" source="iS1LArIpgq8bk9GByBnp-9" target="iS1LArIpgq8bk9GByBnp-10" edge="1">
            <mxGeometry x="-304.7920637459588" y="-13.710655475485112" as="geometry">
              <mxPoint x="-820" y="-238" as="sourcePoint" />
              <mxPoint x="-99.79206374595879" y="-401.7106554754851" as="targetPoint" />
            </mxGeometry>
          </mxCell>
        </object>
        <object label="&quot;$$Addition1_Type_Value$$&quot;^^xsd:string" Type="DataValue" IRI_DT="http://www.w3.org/2001/XMLSchema#string" id="iS1LArIpgq8bk9GByBnp-15">
          <mxCell style="rounded=0;whiteSpace=wrap;html=1;fillColor=#FF8C00;" parent="97505-SNcamct329gDO7-1" vertex="1">
            <mxGeometry x="-708" y="-158" width="259" height="26" as="geometry" />
          </mxCell>
        </object>
        <object label="co:value" Type="DatatypeProperty" IRI="https://w3id.org/pmd/co/value" id="iS1LArIpgq8bk9GByBnp-16">
          <mxCell style="edgeStyle=orthogonalEdgeStyle;rounded=0;orthogonalLoop=1;jettySize=auto;html=1;exitX=1;exitY=0.5;exitDx=0;exitDy=0;fontSize=12;entryX=0;entryY=0.5;entryDx=0;entryDy=0;" parent="97505-SNcamct329gDO7-1" source="4debdBr3dE2mrL2Lvimg-82" target="iS1LArIpgq8bk9GByBnp-15" edge="1">
            <mxGeometry x="-244.79206374595879" y="277.479344524515" as="geometry">
              <mxPoint x="-809" y="-133" as="sourcePoint" />
              <mxPoint x="-39.792063745958785" y="-192.520655475485" as="targetPoint" />
            </mxGeometry>
          </mxCell>
        </object>
        <object label="&quot;$$Admixture1_Type_Value$$&quot;^^xsd:string" Type="DataValue" IRI_DT="http://www.w3.org/2001/XMLSchema#string" id="iS1LArIpgq8bk9GByBnp-17">
          <mxCell style="rounded=0;whiteSpace=wrap;html=1;fillColor=#FF8C00;" parent="97505-SNcamct329gDO7-1" vertex="1">
            <mxGeometry x="-709" y="160" width="258" height="26" as="geometry" />
          </mxCell>
        </object>
        <object label="co:value" Type="DatatypeProperty" IRI="https://w3id.org/pmd/co/value" id="iS1LArIpgq8bk9GByBnp-18">
          <mxCell style="edgeStyle=orthogonalEdgeStyle;rounded=0;orthogonalLoop=1;jettySize=auto;html=1;exitX=1;exitY=0.5;exitDx=0;exitDy=0;fontSize=12;entryX=0;entryY=0.5;entryDx=0;entryDy=0;" parent="97505-SNcamct329gDO7-1" source="4debdBr3dE2mrL2Lvimg-104" target="iS1LArIpgq8bk9GByBnp-17" edge="1">
            <mxGeometry x="-264.7920637459588" y="635.479344524515" as="geometry">
              <mxPoint x="-849" y="172" as="sourcePoint" />
              <mxPoint x="-59.792063745958785" y="124.479344524515" as="targetPoint" />
            </mxGeometry>
          </mxCell>
        </object>
        <object label="&lt;font style=&quot;font-size: 48px;&quot;&gt;Beschreibung&lt;/font&gt;" Type="Namespace" id="SqpXKAVDbg7AYIeDgaqB-1">
          <mxCell style="shape=note;whiteSpace=wrap;html=1;backgroundOutline=1;darkOpacity=0.05;" parent="97505-SNcamct329gDO7-1" vertex="1">
            <mxGeometry x="-359" y="-1240.06" width="640" height="280.06" as="geometry" />
          </mxCell>
        </object>
        <object label="&lt;font style=&quot;font-size: 48px;&quot;&gt;Beschreibung&lt;/font&gt;" Type="Namespace" id="SqpXKAVDbg7AYIeDgaqB-2">
          <mxCell style="shape=note;whiteSpace=wrap;html=1;backgroundOutline=1;darkOpacity=0.05;" parent="97505-SNcamct329gDO7-1" vertex="1">
            <mxGeometry x="-359" y="-920" width="640" height="280.06" as="geometry" />
          </mxCell>
        </object>
        <object label="&lt;font style=&quot;font-size: 48px;&quot;&gt;Beschreibung&lt;/font&gt;" Type="Namespace" id="SqpXKAVDbg7AYIeDgaqB-3">
          <mxCell style="shape=note;whiteSpace=wrap;html=1;backgroundOutline=1;darkOpacity=0.05;" parent="97505-SNcamct329gDO7-1" vertex="1">
            <mxGeometry x="-359" y="-600" width="640" height="370" as="geometry" />
          </mxCell>
        </object>
        <object label="&lt;font style=&quot;font-size: 48px;&quot;&gt;Beschreibung&lt;/font&gt;" Type="Namespace" id="SqpXKAVDbg7AYIeDgaqB-4">
          <mxCell style="shape=note;whiteSpace=wrap;html=1;backgroundOutline=1;darkOpacity=0.05;" parent="97505-SNcamct329gDO7-1" vertex="1">
            <mxGeometry x="-359" y="-190" width="640" height="280.06" as="geometry" />
          </mxCell>
        </object>
        <object label="&lt;font style=&quot;font-size: 48px;&quot;&gt;Beschreibung&lt;/font&gt;" Type="Namespace" id="SqpXKAVDbg7AYIeDgaqB-5">
          <mxCell style="shape=note;whiteSpace=wrap;html=1;backgroundOutline=1;darkOpacity=0.05;" parent="97505-SNcamct329gDO7-1" vertex="1">
            <mxGeometry x="-359" y="160" width="640" height="240" as="geometry" />
          </mxCell>
        </object>
        <object label="&lt;font style=&quot;font-size: 48px;&quot;&gt;Beschreibung&lt;/font&gt;" Type="Namespace" id="SqpXKAVDbg7AYIeDgaqB-6">
          <mxCell style="shape=note;whiteSpace=wrap;html=1;backgroundOutline=1;darkOpacity=0.05;" parent="97505-SNcamct329gDO7-1" vertex="1">
            <mxGeometry x="-360" y="-1720" width="640" height="280.06" as="geometry" />
          </mxCell>
        </object>
        <object label="&lt;font style=&quot;font-size: 48px;&quot;&gt;Beschreibung&lt;/font&gt;" Type="Namespace" id="SqpXKAVDbg7AYIeDgaqB-7">
          <mxCell style="shape=note;whiteSpace=wrap;html=1;backgroundOutline=1;darkOpacity=0.05;" parent="97505-SNcamct329gDO7-1" vertex="1">
            <mxGeometry x="-360" y="-1410" width="640" height="140.06" as="geometry" />
          </mxCell>
        </object>
      </root>
    </mxGraphModel>
  </diagram>
</mxfile>
